<?xml version="1.0" encoding="UTF-8"?>
<!DOCTYPE svg PUBLIC "-//W3C//DTD SVG 1.1//EN" "http://www.w3.org/Graphics/SVG/1.1/DTD/svg11.dtd">
<svg xmlns="http://www.w3.org/2000/svg" version="1.1" width="385px" height="270px" style="shape-rendering:geometricPrecision; text-rendering:geometricPrecision; image-rendering:optimizeQuality; fill-rule:evenodd; clip-rule:evenodd" xmlns:xlink="http://www.w3.org/1999/xlink">
<g><path style="opacity:0.191" fill="#000102" d="M 49.5,1.5 C 54.2634,1.9634 57.0968,4.63006 58,9.5C 58.4274,18.4668 56.9274,27.1335 53.5,35.5C 60.2591,47.9169 60.0924,60.2503 53,72.5C 51.292,74.5435 49.292,76.2101 47,77.5C 46.6667,79.5 46.3333,81.5 46,83.5C 43.5438,85.2105 40.8771,86.5438 38,87.5C 36.5582,95.4524 36.2249,103.452 37,111.5C 44.7963,119.795 53.6297,126.795 63.5,132.5C 63.1667,133.5 62.5,134.167 61.5,134.5C 60.8333,134.5 60.5,134.833 60.5,135.5C 59.7638,133.771 58.4305,132.771 56.5,132.5C 48.2299,125.171 39.3966,117.837 30,110.5C 29.3333,101.5 29.3333,92.5 30,83.5C 30.2734,81.8988 30.7734,80.3988 31.5,79C 34.0034,78.9874 36.5034,78.154 39,76.5C 39.0178,74.2028 38.8511,71.8695 38.5,69.5C 44.4805,67.684 48.3138,63.684 50,57.5C 50.6667,52.5 50.6667,47.5 50,42.5C 49.647,39.8475 48.4803,37.8475 46.5,36.5C 46.5,35.8333 46.1667,35.5 45.5,35.5C 48.0127,26.4578 50.0127,17.2911 51.5,8C 51.101,6.27245 50.4343,4.77245 49.5,3.5C 49.5,2.83333 49.5,2.16667 49.5,1.5 Z"/></g>
<g><path style="opacity:1" fill="#f6f6f7" d="M 47.5,6.5 C 47.6641,9.1873 47.4974,11.854 47,14.5C 45.7011,15.09 44.8678,16.09 44.5,17.5C 43.7761,21.953 42.6094,26.2864 41,30.5C 39.5557,32.1554 37.7224,32.822 35.5,32.5C 35.5,30.5 35.5,28.5 35.5,26.5C 35.5,24.5 35.5,22.5 35.5,20.5C 36.5504,15.918 37.717,11.2513 39,6.5C 41.8295,3.8987 44.6629,3.8987 47.5,6.5 Z"/></g>
<g><path style="opacity:0.251" fill="#5e78ba" d="M 41.5,1.5 C 38.7255,4.2602 36.3922,7.2602 34.5,10.5C 34.7966,7.4411 36.1299,4.9411 38.5,3C 37.3463,2.0862 37.513,1.25286 39,0.5C 39.6708,1.25244 40.5041,1.58577 41.5,1.5 Z"/></g>
<g><path style="opacity:0.106" fill="#b9b6c9" d="M 144.5,8.5 C 141.713,9.47667 138.713,9.81 135.5,9.5C 138.146,7.22016 141.146,6.88683 144.5,8.5 Z"/></g>
<g><path style="opacity:0.547" fill="#505960" d="M 144.5,8.5 C 145.167,8.5 145.833,8.5 146.5,8.5C 142.273,10.2805 137.606,11.1138 132.5,11C 130.028,12.978 127.361,14.478 124.5,15.5C 119.331,16.4165 114.331,17.9165 109.5,20C 106.714,22.0596 103.714,23.5596 100.5,24.5C 100.5,23.1667 100.5,21.8333 100.5,20.5C 111.019,13.285 122.686,9.61834 135.5,9.5C 138.713,9.81 141.713,9.47667 144.5,8.5 Z"/></g>
<g><path style="opacity:0.179" fill="#070909" d="M 156.5,12.5 C 164.451,13.4548 169.117,17.7882 170.5,25.5C 167.167,29.5 163.5,33.1667 159.5,36.5C 148.317,35.3949 137.317,33.3949 126.5,30.5C 122.437,31.0156 118.437,31.8489 114.5,33C 107.18,36.9101 99.6805,40.4101 92,43.5C 90.5272,43.0969 89.1939,42.4303 88,41.5C 87.8371,39.324 87.0037,37.4907 85.5,36C 86.6364,34.8549 87.6364,33.6883 88.5,32.5C 89.2389,32.631 89.9056,32.4643 90.5,32C 93.484,29.0314 96.1506,25.8647 98.5,22.5C 98.8333,21.5 99.5,20.8333 100.5,20.5C 100.5,21.8333 100.5,23.1667 100.5,24.5C 103.714,23.5596 106.714,22.0596 109.5,20C 114.331,17.9165 119.331,16.4165 124.5,15.5C 135.547,13.1156 146.047,14.449 156,19.5C 158.437,16.775 160.437,17.1083 162,20.5C 162.333,21.8333 162.667,23.1667 163,24.5C 164.234,19.885 162.734,16.5517 158.5,14.5C 157.742,15.8114 156.742,16.3114 155.5,16C 156.337,14.9887 156.67,13.8221 156.5,12.5 Z"/></g>
<g><path style="opacity:0.995" fill="#222526" d="M 146.5,8.5 C 150.111,9.25665 153.445,10.59 156.5,12.5C 156.67,13.8221 156.337,14.9887 155.5,16C 156.742,16.3114 157.742,15.8114 158.5,14.5C 162.734,16.5517 164.234,19.885 163,24.5C 162.667,23.1667 162.333,21.8333 162,20.5C 160.437,17.1083 158.437,16.775 156,19.5C 146.047,14.449 135.547,13.1156 124.5,15.5C 127.361,14.478 130.028,12.978 132.5,11C 137.606,11.1138 142.273,10.2805 146.5,8.5 Z"/></g>
<g><path style="opacity:0.537" fill="#44486c" d="M 42.5,-0.5 C 42.8333,-0.5 43.1667,-0.5 43.5,-0.5C 45.5,0.166667 47.5,0.833333 49.5,1.5C 49.5,2.16667 49.5,2.83333 49.5,3.5C 49.7678,5.09903 49.4345,6.43236 48.5,7.5C 48.5,6.83333 48.1667,6.5 47.5,6.5C 44.6629,3.8987 41.8295,3.8987 39,6.5C 37.717,11.2513 36.5504,15.918 35.5,20.5C 34.5318,18.3926 34.1984,16.0593 34.5,13.5C 34.5,12.5 34.5,11.5 34.5,10.5C 36.3922,7.2602 38.7255,4.2602 41.5,1.5C 41.8333,0.833333 42.1667,0.166667 42.5,-0.5 Z"/></g>
<g><path style="opacity:0.212" fill="#222541" d="M 34.5,13.5 C 34.1984,16.0593 34.5318,18.3926 35.5,20.5C 35.5,22.5 35.5,24.5 35.5,26.5C 34.5489,27.9187 34.2155,29.5853 34.5,31.5C 33.8333,31.1667 33.1667,30.8333 32.5,30.5C 32.5,29.8333 32.5,29.1667 32.5,28.5C 34.1089,26.3985 34.6089,24.0652 34,21.5C 33.3965,25.333 32.5632,25.333 31.5,21.5C 32.1174,21.3893 32.6174,21.056 33,20.5C 33.1862,17.9644 33.6862,15.631 34.5,13.5 Z"/></g>
<g><path style="opacity:1" fill="#f3f3f5" d="M 32.5,28.5 C 32.5,29.1667 32.5,29.8333 32.5,30.5C 33.0102,33.3878 32.3435,35.7211 30.5,37.5C 28.2776,37.178 26.4443,37.8446 25,39.5C 23.6463,35.6372 23.1463,31.6372 23.5,27.5C 23.7118,25.6159 24.7118,24.2826 26.5,23.5C 29.155,24.497 31.155,26.1637 32.5,28.5 Z"/></g>
<g><path style="opacity:1" fill="#d6d5de" d="M 47.5,6.5 C 48.1667,6.5 48.5,6.83333 48.5,7.5C 47.7929,16.0883 46.1262,24.4216 43.5,32.5C 40.6296,33.6336 37.6296,34.3003 34.5,34.5C 34.5,33.5 34.5,32.5 34.5,31.5C 34.2155,29.5853 34.5489,27.9187 35.5,26.5C 35.5,28.5 35.5,30.5 35.5,32.5C 37.7224,32.822 39.5557,32.1554 41,30.5C 42.6094,26.2864 43.7761,21.953 44.5,17.5C 44.8678,16.09 45.7011,15.09 47,14.5C 47.4974,11.854 47.6641,9.1873 47.5,6.5 Z"/></g>
<g><path style="opacity:0.043" fill="#000000" d="M 174.5,26.5 C 176.262,26.3573 177.929,26.6906 179.5,27.5C 192.549,40.8808 205.549,54.2141 218.5,67.5C 217.817,69.1765 216.483,69.8432 214.5,69.5C 214.672,68.5084 214.338,67.8417 213.5,67.5C 211.167,64.5 208.5,61.8333 205.5,59.5C 197.167,50.5 188.5,41.8333 179.5,33.5C 178.167,31.5 176.5,29.8333 174.5,28.5C 174.5,27.8333 174.5,27.1667 174.5,26.5 Z"/></g>
<g><path style="opacity:0.059" fill="#4b7380" d="M 98.5,22.5 C 96.1506,25.8647 93.484,29.0314 90.5,32C 89.9056,32.4643 89.2389,32.631 88.5,32.5C 90.93,28.2808 94.2634,24.9474 98.5,22.5 Z"/></g>
<g><path style="opacity:1" fill="#eeedf1" d="M 19.5,30.5 C 20.1667,30.5 20.5,30.8333 20.5,31.5C 20.8478,35.5568 21.5145,39.5568 22.5,43.5C 19.8431,43.162 17.5098,43.8287 15.5,45.5C 14.5224,45.0233 13.6891,44.3567 13,43.5C 12.5012,39.5138 12.3345,35.5138 12.5,31.5C 12.5,31.1667 12.5,30.8333 12.5,30.5C 14.9404,28.0778 17.2737,28.0778 19.5,30.5 Z"/></g>
<g><path style="opacity:0.914" fill="#2a2a3e" d="M 49.5,3.5 C 50.4343,4.77245 51.101,6.27245 51.5,8C 50.0127,17.2911 48.0127,26.4578 45.5,35.5C 43.9519,35.1788 43.2852,34.1788 43.5,32.5C 46.1262,24.4216 47.7929,16.0883 48.5,7.5C 49.4345,6.43236 49.7678,5.09903 49.5,3.5 Z"/></g>
<g><path style="opacity:0.518" fill="#678563" d="M 174.5,28.5 C 176.5,29.8333 178.167,31.5 179.5,33.5C 176.833,32.8333 175.167,31.1667 174.5,28.5 Z"/></g>
<g><path style="opacity:0.459" fill="#383e62" d="M 31.5,21.5 C 32.5632,25.333 33.3965,25.333 34,21.5C 34.6089,24.0652 34.1089,26.3985 32.5,28.5C 31.155,26.1637 29.155,24.497 26.5,23.5C 24.7118,24.2826 23.7118,25.6159 23.5,27.5C 22.5655,28.5676 22.2322,29.901 22.5,31.5C 21.8333,31.5 21.1667,31.5 20.5,31.5C 20.5,30.8333 20.1667,30.5 19.5,30.5C 19.4413,28.2776 18.2747,27.2776 16,27.5C 13.7253,27.2776 12.5587,28.2776 12.5,30.5C 12.5,30.8333 12.5,31.1667 12.5,31.5C 11.8333,34.5 11.1667,37.5 10.5,40.5C 10.2586,34.4994 7.75855,33.1661 3,36.5C 2.18694,40.4041 2.68694,44.0708 4.5,47.5C 5.22987,48.7124 6.22987,49.7124 7.5,50.5C 6.23355,52.9724 6.23355,55.3057 7.5,57.5C 7.65353,59.9699 8.65353,61.9699 10.5,63.5C 11.038,65.1172 11.3713,66.7839 11.5,68.5C 10.8333,68.5 10.5,68.8333 10.5,69.5C 9.87605,69.9169 9.54272,70.5836 9.5,71.5C 9.74716,72.7133 10.4138,73.38 11.5,73.5C 9.64307,74.7652 7.9764,74.4318 6.5,72.5C 6.5,71.8333 6.5,71.1667 6.5,70.5C 6.71182,68.6159 7.71182,67.2826 9.5,66.5C 4.36337,62.2321 2.69671,56.8988 4.5,50.5C 3.32496,50.719 2.32496,50.3857 1.5,49.5C 1.05758,48.2613 0.390917,47.2613 -0.5,46.5C -0.5,43.8333 -0.5,41.1667 -0.5,38.5C 1.01667,35.4653 3.18334,32.7987 6,30.5C 6.3242,32.5689 7.15753,32.9023 8.5,31.5C 10.0797,25.1764 13.913,22.843 20,24.5C 22.6704,23.3291 25.0037,21.6624 27,19.5C 28.3297,20.5822 29.8297,21.2488 31.5,21.5 Z"/></g>
<g><path style="opacity:0.976" fill="#97949e" d="M 19.5,30.5 C 17.2737,28.0778 14.9404,28.0778 12.5,30.5C 12.5587,28.2776 13.7253,27.2776 16,27.5C 18.2747,27.2776 19.4413,28.2776 19.5,30.5 Z"/></g>
<g><path style="opacity:0.525" fill="#5c7159" d="M 179.5,33.5 C 188.5,41.8333 197.167,50.5 205.5,59.5C 196.588,52.0926 188.088,44.0926 180,35.5C 179.536,34.9056 179.369,34.2389 179.5,33.5 Z"/></g>
<g><path style="opacity:1" fill="#e7e6ea" d="M 10.5,40.5 C 10.8938,41.9672 11.2272,43.4672 11.5,45C 11.6134,46.6991 10.9468,47.8658 9.5,48.5C 7.7839,48.3713 6.11723,48.038 4.5,47.5C 2.68694,44.0708 2.18694,40.4041 3,36.5C 7.75855,33.1661 10.2586,34.4994 10.5,40.5 Z"/></g>
<g><path style="opacity:1" fill="#f6f6f8" d="M 38.5,36.5 C 42.5666,37.2631 45.3999,39.5964 47,43.5C 47.499,47.8206 47.6657,52.1539 47.5,56.5C 46.6481,59.2234 45.4814,61.89 44,64.5C 42.7365,66.607 40.9032,67.607 38.5,67.5C 34.9002,67.7938 31.4002,68.4604 28,69.5C 27.9005,67.3474 27.0672,65.6808 25.5,64.5C 24.1103,62.8306 23.7769,61.1639 24.5,59.5C 25.1174,59.6107 25.6174,59.944 26,60.5C 29.2556,59.4196 32.4223,58.0863 35.5,56.5C 36.5606,51.7117 35.2273,51.2117 31.5,55C 28.5682,55.9533 25.5682,56.4533 22.5,56.5C 16.9005,56.6178 14.7339,53.9512 16,48.5C 19.3891,46.962 22.8891,45.6287 26.5,44.5C 29.8745,40.8184 33.8745,38.1518 38.5,36.5 Z"/></g>
<g><path style="opacity:1" fill="#c5c4cd" d="M 23.5,27.5 C 23.1463,31.6372 23.6463,35.6372 25,39.5C 26.4443,37.8446 28.2776,37.178 30.5,37.5C 28.4855,42.208 25.9855,42.8747 23,39.5C 22.5026,36.854 22.3359,34.1873 22.5,31.5C 22.2322,29.901 22.5655,28.5676 23.5,27.5 Z"/></g>
<g><path style="opacity:1" fill="#5f5c6e" d="M 32.5,30.5 C 33.1667,30.8333 33.8333,31.1667 34.5,31.5C 34.5,32.5 34.5,33.5 34.5,34.5C 37.6296,34.3003 40.6296,33.6336 43.5,32.5C 43.2852,34.1788 43.9519,35.1788 45.5,35.5C 46.1667,35.5 46.5,35.8333 46.5,36.5C 46.5,37.5 46.5,38.5 46.5,39.5C 45.1943,38.0322 43.6943,36.6988 42,35.5C 40.7913,35.6526 39.6246,35.9859 38.5,36.5C 33.8745,38.1518 29.8745,40.8184 26.5,44.5C 22.8891,45.6287 19.3891,46.962 16,48.5C 14.7339,53.9512 16.9005,56.6178 22.5,56.5C 23.2625,57.2679 24.2625,57.7679 25.5,58C 24.944,58.3826 24.6107,58.8826 24.5,59.5C 23.7769,61.1639 24.1103,62.8306 25.5,64.5C 25.631,65.2389 25.4643,65.9056 25,66.5C 24.2917,65.6195 23.4584,64.9528 22.5,64.5C 22.2914,63.0783 21.7914,61.745 21,60.5C 15.162,58.6549 12.4954,54.6549 13,48.5C 11.9609,49.7101 10.7942,50.7101 9.5,51.5C 8.37505,50.6522 8.37505,49.6522 9.5,48.5C 10.9468,47.8658 11.6134,46.6991 11.5,45C 11.2272,43.4672 10.8938,41.9672 10.5,40.5C 11.1667,37.5 11.8333,34.5 12.5,31.5C 12.3345,35.5138 12.5012,39.5138 13,43.5C 13.6891,44.3567 14.5224,45.0233 15.5,45.5C 17.5098,43.8287 19.8431,43.162 22.5,43.5C 21.5145,39.5568 20.8478,35.5568 20.5,31.5C 21.1667,31.5 21.8333,31.5 22.5,31.5C 22.3359,34.1873 22.5026,36.854 23,39.5C 25.9855,42.8747 28.4855,42.208 30.5,37.5C 32.3435,35.7211 33.0102,33.3878 32.5,30.5 Z"/></g>
<g><path style="opacity:0.095" fill="#040404" d="M 251.5,40.5 C 264.521,44.2574 275.021,51.5907 283,62.5C 287.201,68.0304 290.535,74.0304 293,80.5C 294.982,89.4425 291.815,92.2758 283.5,89C 277.866,82.3643 271.866,76.031 265.5,70C 261.326,67.4123 256.993,65.079 252.5,63C 242.803,62.2929 233.137,61.2929 223.5,60C 220.68,56.7084 219.347,52.8751 219.5,48.5C 221.104,49.287 221.771,50.6203 221.5,52.5C 227.453,52.6277 227.787,51.961 222.5,50.5C 222.5,49.1667 222.5,47.8333 222.5,46.5C 223.931,47.0819 225.264,47.9152 226.5,49C 233.833,49.3333 241.167,49.6667 248.5,50C 251.405,51.2862 254.405,52.2862 257.5,53C 259.47,55.3157 261.804,57.1491 264.5,58.5C 264.167,58.8333 263.833,59.1667 263.5,59.5C 255.793,53.4936 247.126,51.1603 237.5,52.5C 250.367,53.434 261.367,58.434 270.5,67.5C 271.282,65.6707 270.616,64.1707 268.5,63C 269.167,62.3333 269.833,62.3333 270.5,63C 271.685,64.353 273.019,65.5197 274.5,66.5C 274.833,66 275.167,65.5 275.5,65C 273.165,62.5796 270.498,60.7463 267.5,59.5C 268.522,58.646 269.355,57.646 270,56.5C 271.113,58.3293 272.613,59.1626 274.5,59C 269.798,51.7952 263.465,46.6285 255.5,43.5C 253.924,42.8571 252.59,41.8571 251.5,40.5 Z"/></g>
<g><path style="opacity:0.973" fill="#a7a5b0" d="M 38.5,36.5 C 39.6246,35.9859 40.7913,35.6526 42,35.5C 43.6943,36.6988 45.1943,38.0322 46.5,39.5C 48.0186,42.5256 48.6852,45.8589 48.5,49.5C 48.4966,52.0254 48.1633,54.3587 47.5,56.5C 47.6657,52.1539 47.499,47.8206 47,43.5C 45.3999,39.5964 42.5666,37.2631 38.5,36.5 Z"/></g>
<g><path style="opacity:0.849" fill="#2a3130" d="M 240.5,37.5 C 244.373,38.134 248.039,39.134 251.5,40.5C 252.59,41.8571 253.924,42.8571 255.5,43.5C 253.039,43.2631 250.373,43.5964 247.5,44.5C 239.08,41.7105 230.746,42.0438 222.5,45.5C 222.317,43.0637 222.984,40.897 224.5,39C 230.016,38.8267 235.349,38.3267 240.5,37.5 Z"/></g>
<g><path style="opacity:0.494" fill="#4f596b" d="M 240.5,37.5 C 235.349,38.3267 230.016,38.8267 224.5,39C 222.984,40.897 222.317,43.0637 222.5,45.5C 222.5,45.8333 222.5,46.1667 222.5,46.5C 222.5,47.8333 222.5,49.1667 222.5,50.5C 227.787,51.961 227.453,52.6277 221.5,52.5C 221.771,50.6203 221.104,49.287 219.5,48.5C 219.576,44.5673 220.909,41.0673 223.5,38C 229.09,36.2126 234.756,36.0459 240.5,37.5 Z"/></g>
<g><path style="opacity:0.008" fill="#010202" d="M 138.5,46.5 C 141.406,46.9565 144.072,47.9565 146.5,49.5C 146.158,50.3382 145.492,50.6716 144.5,50.5C 141.802,50.1551 139.802,48.8218 138.5,46.5 Z"/></g>
<g><path style="opacity:0.018" fill="#030408" d="M -0.5,46.5 C 0.390917,47.2613 1.05758,48.2613 1.5,49.5C 2.32496,50.3857 3.32496,50.719 4.5,50.5C 2.69671,56.8988 4.36337,62.2321 9.5,66.5C 7.71182,67.2826 6.71182,68.6159 6.5,70.5C 4.58373,64.3513 2.2504,58.3513 -0.5,52.5C -0.5,50.5 -0.5,48.5 -0.5,46.5 Z"/></g>
<g><path style="opacity:1" fill="#3ea935" d="M 174.5,28.5 C 175.167,31.1667 176.833,32.8333 179.5,33.5C 179.369,34.2389 179.536,34.9056 180,35.5C 188.088,44.0926 196.588,52.0926 205.5,59.5C 207.167,63.1667 209.833,65.8333 213.5,67.5C 214.338,67.8417 214.672,68.5084 214.5,69.5C 214.5,69.8333 214.5,70.1667 214.5,70.5C 205.788,73.956 198.288,79.2893 192,86.5C 190.36,89.3606 189.193,92.3606 188.5,95.5C 187.007,96.3121 186.34,97.6455 186.5,99.5C 187.274,103.465 187.607,107.465 187.5,111.5C 187.421,114.271 187.921,116.937 189,119.5C 190.546,121.699 192.046,123.866 193.5,126C 193.527,128.64 192.193,129.973 189.5,130C 187.996,131.491 187.163,133.324 187,135.5C 182.414,140.296 177.414,144.629 172,148.5C 171.53,149.577 171.697,150.577 172.5,151.5C 171.448,151.351 170.448,151.517 169.5,152C 146.168,176.332 122.501,200.332 98.5,224C 97.9056,224.464 97.2389,224.631 96.5,224.5C 95.1667,224.5 93.8333,224.5 92.5,224.5C 92.5,225.833 92.5,227.167 92.5,228.5C 91.448,228.351 90.448,228.517 89.5,229C 87.9825,230.685 86.3159,232.185 84.5,233.5C 83.914,233.291 83.414,232.957 83,232.5C 82.6498,235.38 81.8165,238.047 80.5,240.5C 74.7623,247.562 68.7623,254.229 62.5,260.5C 58.933,262.557 55.7663,265.223 53,268.5C 52.3292,267.748 51.4959,267.414 50.5,267.5C 49.9202,265.251 48.5869,263.585 46.5,262.5C 45.9202,260.251 44.5869,258.585 42.5,257.5C 42.2503,255.326 41.2503,253.659 39.5,252.5C 39.2503,250.326 38.2503,248.659 36.5,247.5C 36.2451,245.033 35.2451,243.033 33.5,241.5C 33.3713,239.784 33.038,238.117 32.5,236.5C 32.1477,230.045 30.8144,224.045 28.5,218.5C 27.0267,207.24 27.5267,195.907 30,184.5C 32.8965,176.377 36.0632,168.377 39.5,160.5C 42.5998,156.644 45.9331,152.977 49.5,149.5C 51.6325,150.727 53.9658,151.727 56.5,152.5C 65.5711,149.67 67.9044,144.003 63.5,135.5C 64.2485,133.668 65.2485,132.001 66.5,130.5C 67.4734,130.013 68.4734,129.513 69.5,129C 71.8318,126.694 73.8318,124.194 75.5,121.5C 76.9778,121.762 78.3112,121.429 79.5,120.5C 81.4898,118.168 83.4898,115.835 85.5,113.5C 87.1172,112.962 88.7839,112.629 90.5,112.5C 90.4706,115.773 91.8039,116.44 94.5,114.5C 96.3888,116.432 98.3888,118.265 100.5,120C 117.996,126.718 135.329,126.052 152.5,118C 167.845,108.325 173.679,94.4912 170,76.5C 166.644,64.3182 159.144,56.3182 147.5,52.5C 154.98,44.1858 162.647,36.0191 170.5,28C 171.928,27.4209 173.262,27.5876 174.5,28.5 Z"/></g>
<g><path style="opacity:0.997" fill="#151515" d="M 255.5,43.5 C 263.465,46.6285 269.798,51.7952 274.5,59C 272.613,59.1626 271.113,58.3293 270,56.5C 269.355,57.646 268.522,58.646 267.5,59.5C 270.498,60.7463 273.165,62.5796 275.5,65C 275.167,65.5 274.833,66 274.5,66.5C 273.019,65.5197 271.685,64.353 270.5,63C 269.833,62.3333 269.167,62.3333 268.5,63C 270.616,64.1707 271.282,65.6707 270.5,67.5C 261.367,58.434 250.367,53.434 237.5,52.5C 247.126,51.1603 255.793,53.4936 263.5,59.5C 263.833,59.1667 264.167,58.8333 264.5,58.5C 261.804,57.1491 259.47,55.3157 257.5,53C 254.405,52.2862 251.405,51.2862 248.5,50C 241.167,49.6667 233.833,49.3333 226.5,49C 225.264,47.9152 223.931,47.0819 222.5,46.5C 222.5,46.1667 222.5,45.8333 222.5,45.5C 230.746,42.0438 239.08,41.7105 247.5,44.5C 250.373,43.5964 253.039,43.2631 255.5,43.5 Z"/></g>
<g><path style="opacity:1" fill="#a4a2ac" d="M 4.5,47.5 C 6.11723,48.038 7.7839,48.3713 9.5,48.5C 8.37505,49.6522 8.37505,50.6522 9.5,51.5C 7.9254,53.1137 7.25873,55.1137 7.5,57.5C 6.23355,55.3057 6.23355,52.9724 7.5,50.5C 6.22987,49.7124 5.22987,48.7124 4.5,47.5 Z"/></g>
<g><path style="opacity:0.999" fill="#f5f4f6" d="M 102.5,46.5 C 108.537,46.1707 114.537,46.5041 120.5,47.5C 128.28,48.6154 134.947,51.9488 140.5,57.5C 147.823,65.4268 150.156,74.7602 147.5,85.5C 145.599,84.065 145.266,82.3983 146.5,80.5C 146,79.5 145.5,78.5 145,77.5C 144.667,77.8333 144.333,78.1667 144,78.5C 143.559,74.9522 142.059,71.9522 139.5,69.5C 138.702,69.9569 138.369,70.6236 138.5,71.5C 133.545,65.5447 127.212,62.2113 119.5,61.5C 114.985,60.1876 110.318,60.1876 105.5,61.5C 104.757,62.1818 104.091,62.8485 103.5,63.5C 93.5474,66.74 89.8808,73.4067 92.5,83.5C 92.3284,84.4916 92.6618,85.1583 93.5,85.5C 94.1098,86.391 94.4431,87.391 94.5,88.5C 94.8588,90.371 95.8588,91.871 97.5,93C 96.5004,95.0907 97.1671,96.7574 99.5,98C 97.5273,98.4955 95.5273,98.6621 93.5,98.5C 89.4607,97.2919 85.4607,95.9585 81.5,94.5C 78.5223,92.838 76.189,90.5047 74.5,87.5C 72.74,84.4435 71.0733,81.4435 69.5,78.5C 72.3664,67.5561 78.1998,58.5561 87,51.5C 87.3333,51.8333 87.6667,52.1667 88,52.5C 89.1667,50.6667 90.6667,49.1667 92.5,48C 95.7928,47.1744 99.1262,46.6744 102.5,46.5 Z"/></g>
<g><path style="opacity:0.99" fill="#d4d5dc" d="M 134.5,45.5 C 134.5,46.5 134.5,47.5 134.5,48.5C 137.833,50.1667 141.167,51.8333 144.5,53.5C 144.782,54.7777 145.449,55.7777 146.5,56.5C 148.5,58.1667 150.5,59.8333 152.5,61.5C 154.626,69.7629 154.96,78.0963 153.5,86.5C 152.5,86.5 151.5,86.5 150.5,86.5C 150.425,89.2062 150.092,91.8728 149.5,94.5C 145.925,98.1229 141.591,100.456 136.5,101.5C 139.796,99.5118 142.963,97.1785 146,94.5C 146.133,91.4749 147.133,88.8082 149,86.5C 149.831,78.8117 149.665,71.145 148.5,63.5C 146.079,61.0663 143.412,59.0663 140.5,57.5C 134.947,51.9488 128.28,48.6154 120.5,47.5C 114.537,46.5041 108.537,46.1707 102.5,46.5C 112.853,43.2255 123.52,42.8921 134.5,45.5 Z"/></g>
<g><path style="opacity:0.58" fill="#868a92" d="M 134.5,45.5 C 135.959,45.4326 137.292,45.7659 138.5,46.5C 139.802,48.8218 141.802,50.1551 144.5,50.5C 144.5,51.5 144.5,52.5 144.5,53.5C 141.167,51.8333 137.833,50.1667 134.5,48.5C 134.5,47.5 134.5,46.5 134.5,45.5 Z"/></g>
<g><path style="opacity:1" fill="#efeef0" d="M 22.5,64.5 C 23.038,66.1172 23.3713,67.7839 23.5,69.5C 20.1973,69.3104 17.1973,68.3104 14.5,66.5C 13.205,65.5116 11.8717,64.5116 10.5,63.5C 8.65353,61.9699 7.65353,59.9699 7.5,57.5C 7.25873,55.1137 7.9254,53.1137 9.5,51.5C 10.7942,50.7101 11.9609,49.7101 13,48.5C 12.4954,54.6549 15.162,58.6549 21,60.5C 21.7914,61.745 22.2914,63.0783 22.5,64.5 Z"/></g>
<g><path style="opacity:1" fill="#83b580" d="M 170.5,25.5 C 171.833,25.8333 173.167,26.1667 174.5,26.5C 174.5,27.1667 174.5,27.8333 174.5,28.5C 173.262,27.5876 171.928,27.4209 170.5,28C 162.647,36.0191 154.98,44.1858 147.5,52.5C 146.957,52.56 146.624,52.8933 146.5,53.5C 148.941,54.709 150.941,56.3757 152.5,58.5C 150.685,57.3702 148.685,56.7036 146.5,56.5C 145.449,55.7777 144.782,54.7777 144.5,53.5C 144.5,52.5 144.5,51.5 144.5,50.5C 145.492,50.6716 146.158,50.3382 146.5,49.5C 151.194,45.4729 155.527,41.1396 159.5,36.5C 163.5,33.1667 167.167,29.5 170.5,25.5 Z"/></g>
<g><path style="opacity:1" fill="#3ba033" d="M 147.5,52.5 C 159.144,56.3182 166.644,64.3182 170,76.5C 173.679,94.4912 167.845,108.325 152.5,118C 135.329,126.052 117.996,126.718 100.5,120C 98.3888,118.265 96.3888,116.432 94.5,114.5C 91.8039,116.44 90.4706,115.773 90.5,112.5C 88.7839,112.629 87.1172,112.962 85.5,113.5C 86.5,111.833 87.8333,110.5 89.5,109.5C 96.8862,113.076 104.553,116.076 112.5,118.5C 115.12,120.895 118.287,121.895 122,121.5C 132.702,121.771 142.868,119.605 152.5,115C 155.965,110.533 159.798,106.367 164,102.5C 165.908,99.7935 166.741,96.7935 166.5,93.5C 166.829,87.4632 166.496,81.4632 165.5,75.5C 164.818,74.7573 164.151,74.0906 163.5,73.5C 163.167,73.5 162.833,73.5 162.5,73.5C 160.735,70.2911 158.735,67.2911 156.5,64.5C 155.585,62.2459 154.252,60.2459 152.5,58.5C 150.941,56.3757 148.941,54.709 146.5,53.5C 146.624,52.8933 146.957,52.56 147.5,52.5 Z"/></g>
<g><path style="opacity:1" fill="#9896a3" d="M 24.5,59.5 C 24.6107,58.8826 24.944,58.3826 25.5,58C 24.2625,57.7679 23.2625,57.2679 22.5,56.5C 25.5682,56.4533 28.5682,55.9533 31.5,55C 35.2273,51.2117 36.5606,51.7117 35.5,56.5C 32.4223,58.0863 29.2556,59.4196 26,60.5C 25.6174,59.944 25.1174,59.6107 24.5,59.5 Z"/></g>
<g><path style="opacity:1" fill="#7f9a85" d="M 146.5,56.5 C 148.685,56.7036 150.685,57.3702 152.5,58.5C 154.252,60.2459 155.585,62.2459 156.5,64.5C 155.167,63.5 153.833,62.5 152.5,61.5C 150.5,59.8333 148.5,58.1667 146.5,56.5 Z"/></g>
<g><path style="opacity:0.525" fill="#596d57" d="M 205.5,59.5 C 208.5,61.8333 211.167,64.5 213.5,67.5C 209.833,65.8333 207.167,63.1667 205.5,59.5 Z"/></g>
<g><path style="opacity:1" fill="#8e8b9a" d="M 10.5,63.5 C 11.8717,64.5116 13.205,65.5116 14.5,66.5C 15.4944,69.3992 14.4944,70.0659 11.5,68.5C 11.3713,66.7839 11.038,65.1172 10.5,63.5 Z"/></g>
<g><path style="opacity:1" fill="#131111" d="M 138.5,88.5 C 136.877,92.1233 134.21,94.79 130.5,96.5C 116.532,102.34 104.532,99.6731 94.5,88.5C 94.4431,87.391 94.1098,86.391 93.5,85.5C 93.3398,83.8008 93.5065,82.1341 94,80.5C 95.6199,84.3937 97.7866,87.8937 100.5,91C 101.609,91.6377 102.775,92.1377 104,92.5C 107.776,91.6058 111.61,91.2725 115.5,91.5C 115.33,90.1779 115.663,89.0113 116.5,88C 118.577,87.8078 120.577,87.3078 122.5,86.5C 125.659,81.2777 127.325,75.6111 127.5,69.5C 131.123,68.5207 133.957,69.8541 136,73.5C 137.305,78.3985 138.138,83.3985 138.5,88.5 Z"/></g>
<g><path style="opacity:1" fill="#eae9eb" d="M 140.5,57.5 C 143.412,59.0663 146.079,61.0663 148.5,63.5C 149.665,71.145 149.831,78.8117 149,86.5C 147.133,88.8082 146.133,91.4749 146,94.5C 142.963,97.1785 139.796,99.5118 136.5,101.5C 121.682,104.846 107.349,103.846 93.5,98.5C 95.5273,98.6621 97.5273,98.4955 99.5,98C 97.1671,96.7574 96.5004,95.0907 97.5,93C 95.8588,91.871 94.8588,90.371 94.5,88.5C 104.532,99.6731 116.532,102.34 130.5,96.5C 134.21,94.79 136.877,92.1233 138.5,88.5C 142.018,82.9715 142.018,77.3049 138.5,71.5C 138.369,70.6236 138.702,69.9569 139.5,69.5C 142.059,71.9522 143.559,74.9522 144,78.5C 144.333,78.1667 144.667,77.8333 145,77.5C 145.5,78.5 146,79.5 146.5,80.5C 145.266,82.3983 145.599,84.065 147.5,85.5C 150.156,74.7602 147.823,65.4268 140.5,57.5 Z"/></g>
<g><path style="opacity:0.169" fill="#81817a" d="M 233.5,68.5 C 237.048,69.1301 240.381,70.1301 243.5,71.5C 239.572,72.0242 236.239,71.0242 233.5,68.5 Z"/></g>
<g><path style="opacity:1" fill="#d4d3dd" d="M 22.5,64.5 C 23.4584,64.9528 24.2917,65.6195 25,66.5C 25.4643,65.9056 25.631,65.2389 25.5,64.5C 27.0672,65.6808 27.9005,67.3474 28,69.5C 31.4002,68.4604 34.9002,67.7938 38.5,67.5C 37.0917,69.8969 36.0917,72.5636 35.5,75.5C 30.8999,76.4435 26.2332,76.7768 21.5,76.5C 19.597,76.2041 17.9303,75.5375 16.5,74.5C 14.0592,73.291 12.0592,71.6243 10.5,69.5C 10.5,68.8333 10.8333,68.5 11.5,68.5C 14.4944,70.0659 15.4944,69.3992 14.5,66.5C 17.1973,68.3104 20.1973,69.3104 23.5,69.5C 23.3713,67.7839 23.038,66.1172 22.5,64.5 Z"/></g>
<g><path style="opacity:0.416" fill="#c0c0c0" d="M 233.5,68.5 C 236.239,71.0242 239.572,72.0242 243.5,71.5C 245.565,71.5172 247.565,71.8505 249.5,72.5C 249.369,73.2389 249.536,73.9056 250,74.5C 252.015,75.6966 253.849,77.0299 255.5,78.5C 245.228,74.3745 234.728,71.0412 224,68.5C 221.41,70.273 218.577,71.273 215.5,71.5C 215.5,70.8333 215.167,70.5 214.5,70.5C 214.5,70.1667 214.5,69.8333 214.5,69.5C 216.483,69.8432 217.817,69.1765 218.5,67.5C 221.909,67.7507 225.242,67.4173 228.5,66.5C 230.195,67.1744 231.862,67.8411 233.5,68.5 Z"/></g>
<g><path style="opacity:0.078" fill="#020204" d="M 6.5,72.5 C 7.9764,74.4318 9.64307,74.7652 11.5,73.5C 11.8333,73.5 12.1667,73.5 12.5,73.5C 12.5,74.5 12.5,75.5 12.5,76.5C 13.5,76.5 14.5,76.5 15.5,76.5C 15.5,77.5 15.5,78.5 15.5,79.5C 15.2041,81.403 14.5375,83.0697 13.5,84.5C 9.01602,82.6768 6.34935,79.3435 5.5,74.5C 5.86273,73.8165 6.19607,73.1499 6.5,72.5 Z"/></g>
<g><path style="opacity:0.608" fill="#838393" d="M 10.5,69.5 C 12.0592,71.6243 14.0592,73.291 16.5,74.5C 15.0413,74.5674 13.7079,74.2341 12.5,73.5C 12.1667,73.5 11.8333,73.5 11.5,73.5C 10.4138,73.38 9.74716,72.7133 9.5,71.5C 9.54272,70.5836 9.87605,69.9169 10.5,69.5 Z"/></g>
<g><path style="opacity:0.506" fill="#3e3e33" d="M 277.5,63.5 C 280.223,66.5863 282.723,69.9196 285,73.5C 285.667,75.5 285.667,77.5 285,79.5C 282.232,74.2962 279.732,68.9629 277.5,63.5 Z"/></g>
<g><path style="opacity:0.086" fill="#060605" d="M 252.5,73.5 C 268.236,80.0705 279.069,91.4038 285,107.5C 286.218,115.409 285.052,122.909 281.5,130C 293.443,140.106 303.776,151.606 312.5,164.5C 320.56,169.592 328.56,174.592 336.5,179.5C 332.307,178.664 328.307,177.164 324.5,175C 317.947,170.562 311.28,166.395 304.5,162.5C 304.167,162.5 303.833,162.5 303.5,162.5C 301.162,158.184 298.495,154.184 295.5,150.5C 294.92,148.251 293.587,146.585 291.5,145.5C 289.167,142.5 286.5,139.833 283.5,137.5C 281.431,134.427 278.764,132.094 275.5,130.5C 275.167,130.5 274.833,130.5 274.5,130.5C 274.167,129.833 273.833,129.167 273.5,128.5C 275.135,123.292 276.135,117.958 276.5,112.5C 277.725,111.848 278.392,110.681 278.5,109C 278.607,106.779 277.94,104.946 276.5,103.5C 275.691,101.708 275.191,99.7078 275,97.5C 272.074,94.6448 269.907,91.3115 268.5,87.5C 265.136,84.8249 261.803,82.1582 258.5,79.5C 256.806,77.1394 254.806,75.1394 252.5,73.5 Z"/></g>
<g><path style="opacity:1" fill="#f5f5f5" d="M 190.5,110.5 C 188.683,105.759 188.016,100.759 188.5,95.5C 192.12,90.8701 195.787,86.2034 199.5,81.5C 201.61,79.7111 203.944,78.3777 206.5,77.5C 211.075,75.9591 215.575,74.2924 220,72.5C 229.297,74.133 238.463,76.2997 247.5,79C 250.037,81.872 252.87,84.372 256,86.5C 256.981,90.4641 258.981,93.7974 262,96.5C 262.667,102.167 262.667,107.833 262,113.5C 260.477,115.569 259.643,117.903 259.5,120.5C 254.637,123.177 249.637,125.677 244.5,128C 236.173,128.5 227.84,128.666 219.5,128.5C 219.5,127.5 219.5,126.5 219.5,125.5C 217.473,125.662 215.473,125.495 213.5,125C 212.965,122.891 211.965,122.391 210.5,123.5C 206.486,122.474 203.819,120.14 202.5,116.5C 200.801,116.66 199.134,116.494 197.5,116C 194.667,114.622 192.334,112.789 190.5,110.5 Z"/></g>
<g><path style="opacity:0.196" fill="#68675e" d="M 249.5,72.5 C 250.791,72.2627 251.791,72.596 252.5,73.5C 254.806,75.1394 256.806,77.1394 258.5,79.5C 257.391,79.4431 256.391,79.1098 255.5,78.5C 253.849,77.0299 252.015,75.6966 250,74.5C 249.536,73.9056 249.369,73.2389 249.5,72.5 Z"/></g>
<g><path style="opacity:1" fill="#514f4c" d="M 119.5,61.5 C 115.486,61.3345 111.486,61.5012 107.5,62C 110.919,62.2485 114.253,62.7485 117.5,63.5C 116.122,64.2344 114.622,64.9011 113,65.5C 115.026,76.6393 110.526,81.306 99.5,79.5C 99.7618,76.2516 99.7618,73.2516 99.5,70.5C 102.042,68.5813 104.709,66.7479 107.5,65C 106.552,64.5172 105.552,64.3505 104.5,64.5C 104.5,63.8333 104.167,63.5 103.5,63.5C 104.091,62.8485 104.757,62.1818 105.5,61.5C 110.318,60.1876 114.985,60.1876 119.5,61.5 Z"/></g>
<g><path style="opacity:1" fill="#363432" d="M 103.5,63.5 C 104.167,63.5 104.5,63.8333 104.5,64.5C 98.4219,66.3906 95.2553,70.3906 95,76.5C 96.2775,74.2528 97.7775,72.2528 99.5,70.5C 99.7618,73.2516 99.7618,76.2516 99.5,79.5C 110.526,81.306 115.026,76.6393 113,65.5C 114.622,64.9011 116.122,64.2344 117.5,63.5C 125.444,64.4728 125.444,65.4728 117.5,66.5C 118.415,67.3279 119.081,68.3279 119.5,69.5C 119.085,71.9091 118.418,74.2424 117.5,76.5C 114.683,79.212 111.683,81.712 108.5,84C 105.151,84.3876 101.817,84.2209 98.5,83.5C 98.5,81.8333 98.5,80.1667 98.5,78.5C 96.5,78.5 94.5,78.5 92.5,78.5C 92.5,80.1667 92.5,81.8333 92.5,83.5C 89.8808,73.4067 93.5474,66.74 103.5,63.5 Z"/></g>
<g><path style="opacity:1" fill="#767472" d="M 104.5,64.5 C 105.552,64.3505 106.552,64.5172 107.5,65C 104.709,66.7479 102.042,68.5813 99.5,70.5C 97.7775,72.2528 96.2775,74.2528 95,76.5C 95.2553,70.3906 98.4219,66.3906 104.5,64.5 Z"/></g>
<g><path style="opacity:1" fill="#1a1817" d="M 119.5,61.5 C 127.212,62.2113 133.545,65.5447 138.5,71.5C 142.018,77.3049 142.018,82.9715 138.5,88.5C 138.138,83.3985 137.305,78.3985 136,73.5C 133.957,69.8541 131.123,68.5207 127.5,69.5C 127.325,75.6111 125.659,81.2777 122.5,86.5C 120.577,87.3078 118.577,87.8078 116.5,88C 115.663,89.0113 115.33,90.1779 115.5,91.5C 111.61,91.2725 107.776,91.6058 104,92.5C 102.775,92.1377 101.609,91.6377 100.5,91C 97.7866,87.8937 95.6199,84.3937 94,80.5C 93.5065,82.1341 93.3398,83.8008 93.5,85.5C 92.6618,85.1583 92.3284,84.4916 92.5,83.5C 92.5,81.8333 92.5,80.1667 92.5,78.5C 94.5,78.5 96.5,78.5 98.5,78.5C 98.5,80.1667 98.5,81.8333 98.5,83.5C 101.817,84.2209 105.151,84.3876 108.5,84C 111.683,81.712 114.683,79.212 117.5,76.5C 118.418,74.2424 119.085,71.9091 119.5,69.5C 119.081,68.3279 118.415,67.3279 117.5,66.5C 125.444,65.4728 125.444,64.4728 117.5,63.5C 114.253,62.7485 110.919,62.2485 107.5,62C 111.486,61.5012 115.486,61.3345 119.5,61.5 Z"/></g>
<g><path style="opacity:1" fill="#677977" d="M 156.5,64.5 C 158.735,67.2911 160.735,70.2911 162.5,73.5C 162.821,78.6946 162.487,83.6946 161.5,88.5C 161.815,84.6286 161.482,80.9619 160.5,77.5C 159.342,73.1926 158.009,68.8593 156.5,64.5 Z"/></g>
<g><path style="opacity:0.038" fill="#08090a" d="M 69.5,83.5 C 74.0789,91.2776 79.7456,98.4443 86.5,105C 87.448,105.483 88.448,105.649 89.5,105.5C 89.4431,106.609 89.1098,107.609 88.5,108.5C 87.1667,109.5 85.8333,110.5 84.5,111.5C 81.5816,107.076 78.0816,103.076 74,99.5C 71.566,94.4309 70.066,89.0975 69.5,83.5 Z"/></g>
<g><path style="opacity:0.322" fill="#4e5e8e" d="M 15.5,79.5 C 16.1239,79.9169 16.4573,80.5836 16.5,81.5C 15.3594,84.7554 14.5261,88.0888 14,91.5C 13.5357,90.9056 13.369,90.2389 13.5,89.5C 13.5,87.8333 13.5,86.1667 13.5,84.5C 14.5375,83.0697 15.2041,81.403 15.5,79.5 Z"/></g>
<g><path style="opacity:1" fill="#bce0bd" d="M 214.5,70.5 C 215.167,70.5 215.5,70.8333 215.5,71.5C 212.005,72.6442 209.005,74.6442 206.5,77.5C 203.944,78.3777 201.61,79.7111 199.5,81.5C 195.787,86.2034 192.12,90.8701 188.5,95.5C 189.193,92.3606 190.36,89.3606 192,86.5C 198.288,79.2893 205.788,73.956 214.5,70.5 Z"/></g>
<g><path style="opacity:0.835" fill="#9a9ca4" d="M 69.5,78.5 C 71.0733,81.4435 72.74,84.4435 74.5,87.5C 76.189,90.5047 78.5223,92.838 81.5,94.5C 82.2674,99.2682 84.934,101.935 89.5,102.5C 89.5,103.5 89.5,104.5 89.5,105.5C 88.448,105.649 87.448,105.483 86.5,105C 79.7456,98.4443 74.0789,91.2776 69.5,83.5C 69.5,81.8333 69.5,80.1667 69.5,78.5 Z"/></g>
<g><path style="opacity:1" fill="#4e4c4b" d="M 224.5,87.5 C 226.275,89.5842 228.608,90.7509 231.5,91C 229.386,92.4976 228.886,94.3309 230,96.5C 225.737,100.993 220.904,101.66 215.5,98.5C 216.981,97.056 216.648,96.3894 214.5,96.5C 216.519,94.4943 218.852,92.8276 221.5,91.5C 221,91.1667 220.5,90.8333 220,90.5C 216.568,92.1296 213.402,94.1296 210.5,96.5C 209.034,97.347 208.2,98.6803 208,100.5C 207.503,103.146 207.336,105.813 207.5,108.5C 206.12,104.563 206.286,100.563 208,96.5C 211.889,90.4735 217.389,87.4735 224.5,87.5 Z"/></g>
<g><path style="opacity:0.019" fill="#000102" d="M 347.5,94.5 C 347.5,94.1667 347.5,93.8333 347.5,93.5C 350.831,93.0181 353.497,94.0181 355.5,96.5C 354.265,96.7214 353.265,97.3881 352.5,98.5C 351.64,96.0693 349.973,94.736 347.5,94.5 Z"/></g>
<g><path style="opacity:1" fill="#130e27" d="M 12.5,73.5 C 13.7079,74.2341 15.0413,74.5674 16.5,74.5C 17.9303,75.5375 19.597,76.2041 21.5,76.5C 23.6074,77.4682 25.9407,77.8016 28.5,77.5C 27.6187,88.8727 27.6187,100.206 28.5,111.5C 31.1379,114.474 33.8046,117.474 36.5,120.5C 43.1383,124.812 49.4716,129.479 55.5,134.5C 56.2975,134.043 56.6309,133.376 56.5,132.5C 58.4305,132.771 59.7638,133.771 60.5,135.5C 60.5,135.833 60.5,136.167 60.5,136.5C 59.5386,138.265 59.2053,140.265 59.5,142.5C 56.8639,144.762 53.8639,146.095 50.5,146.5C 48.6916,146.509 47.0249,146.009 45.5,145C 42.4432,142.277 39.1099,139.944 35.5,138C 32.0333,135.701 29.0333,132.868 26.5,129.5C 23.5711,125.394 20.4044,121.394 17,117.5C 15.1393,112.606 13.306,107.939 11.5,103.5C 11.5319,98.6093 12.1985,93.9426 13.5,89.5C 13.369,90.2389 13.5357,90.9056 14,91.5C 14.5261,88.0888 15.3594,84.7554 16.5,81.5C 16.4573,80.5836 16.1239,79.9169 15.5,79.5C 15.5,78.5 15.5,77.5 15.5,76.5C 14.5,76.5 13.5,76.5 12.5,76.5C 12.5,75.5 12.5,74.5 12.5,73.5 Z"/></g>
<g><path style="opacity:1" fill="#a4a1bc" d="M 160.5,77.5 C 161.482,80.9619 161.815,84.6286 161.5,88.5C 157.276,98.057 150.61,105.39 141.5,110.5C 130.966,112.309 120.299,112.976 109.5,112.5C 107.167,112.5 104.833,112.5 102.5,112.5C 99.0949,110.348 95.4282,108.682 91.5,107.5C 90.8165,107.863 90.1499,108.196 89.5,108.5C 89.1667,108.5 88.8333,108.5 88.5,108.5C 89.1098,107.609 89.4431,106.609 89.5,105.5C 93.037,105.311 96.3703,105.977 99.5,107.5C 104.313,110.697 109.813,112.031 116,111.5C 124.156,110.668 132.323,110.001 140.5,109.5C 139.637,105.838 140.97,103.672 144.5,103C 147.372,100.463 149.872,97.6301 152,94.5C 153.333,97.1667 154.667,97.1667 156,94.5C 155.775,91.1752 157.108,88.8419 160,87.5C 160.498,84.1832 160.665,80.8499 160.5,77.5 Z"/></g>
<g><path style="opacity:1" fill="#767473" d="M 214.5,96.5 C 213.115,97.5736 211.949,98.9069 211,100.5C 210.536,99.9056 210.369,99.2389 210.5,98.5C 210.5,97.8333 210.5,97.1667 210.5,96.5C 213.402,94.1296 216.568,92.1296 220,90.5C 220.5,90.8333 221,91.1667 221.5,91.5C 218.852,92.8276 216.519,94.4943 214.5,96.5 Z"/></g>
<g><path style="opacity:0.282" fill="#576eae" d="M 347.5,93.5 C 347.5,93.8333 347.5,94.1667 347.5,94.5C 345.473,94.3379 343.473,94.5045 341.5,95C 340.491,97.1718 338.824,98.3385 336.5,98.5C 338.942,93.7735 342.609,92.1068 347.5,93.5 Z"/></g>
<g><path style="opacity:1" fill="#f6f6f7" d="M 350.5,101.5 C 350.666,106.844 350.499,112.177 350,117.5C 349.303,119.584 348.136,121.251 346.5,122.5C 344.287,123.605 342.12,123.605 340,122.5C 339.825,118.789 339.325,115.122 338.5,111.5C 337.808,112.025 337.308,112.692 337,113.5C 336.51,112.207 336.343,110.873 336.5,109.5C 336.985,105.054 338.652,101.054 341.5,97.5C 346.059,95.4205 349.059,96.7539 350.5,101.5 Z"/></g>
<g><path style="opacity:1" fill="#cfcddb" d="M 255.5,78.5 C 256.391,79.1098 257.391,79.4431 258.5,79.5C 258.343,80.8734 258.51,82.2068 259,83.5C 261.481,85.4579 264.147,87.1245 267,88.5C 267.991,90.8076 268.824,93.1409 269.5,95.5C 271.027,105.715 268.694,114.881 262.5,123C 260.783,124.559 258.783,125.392 256.5,125.5C 262.727,119.664 265.393,112.331 264.5,103.5C 264.24,95.4648 261.407,88.4648 256,82.5C 255.51,81.2068 255.343,79.8734 255.5,78.5 Z"/></g>
<g><path style="opacity:0.036" fill="#010103" d="M 372.5,100.5 C 377.947,100.621 381.281,103.288 382.5,108.5C 380.409,108.682 378.409,108.348 376.5,107.5C 375.895,104.703 374.562,102.37 372.5,100.5 Z"/></g>
<g><path style="opacity:0.892" fill="#252942" d="M 46.5,36.5 C 48.4803,37.8475 49.647,39.8475 50,42.5C 50.6667,47.5 50.6667,52.5 50,57.5C 48.3138,63.684 44.4805,67.684 38.5,69.5C 38.8511,71.8695 39.0178,74.2028 39,76.5C 36.5034,78.154 34.0034,78.9874 31.5,79C 30.7734,80.3988 30.2734,81.8988 30,83.5C 29.3333,92.5 29.3333,101.5 30,110.5C 39.3966,117.837 48.2299,125.171 56.5,132.5C 56.6309,133.376 56.2975,134.043 55.5,134.5C 49.4716,129.479 43.1383,124.812 36.5,120.5C 33.8046,117.474 31.1379,114.474 28.5,111.5C 27.6187,100.206 27.6187,88.8727 28.5,77.5C 25.9407,77.8016 23.6074,77.4682 21.5,76.5C 26.2332,76.7768 30.8999,76.4435 35.5,75.5C 36.0917,72.5636 37.0917,69.8969 38.5,67.5C 40.9032,67.607 42.7365,66.607 44,64.5C 45.4814,61.89 46.6481,59.2234 47.5,56.5C 48.1633,54.3587 48.4966,52.0254 48.5,49.5C 48.6852,45.8589 48.0186,42.5256 46.5,39.5C 46.5,38.5 46.5,37.5 46.5,36.5 Z"/></g>
<g><path style="opacity:1" fill="#efeff1" d="M 355.5,99.5 C 359.237,99.2407 361.57,100.907 362.5,104.5C 363.468,111.58 362.135,118.08 358.5,124C 354.819,125.314 352.486,124.147 351.5,120.5C 353.157,114.616 353.824,108.616 353.5,102.5C 354.167,101.5 354.833,100.5 355.5,99.5 Z"/></g>
<g><path style="opacity:1" fill="#2e2c2a" d="M 224.5,87.5 C 229.453,87.1228 234.119,87.7895 238.5,89.5C 237.127,89.3433 235.793,89.51 234.5,90C 236.002,90.5831 237.335,91.4164 238.5,92.5C 237.675,93.3857 236.675,93.719 235.5,93.5C 235.66,95.1992 235.494,96.8659 235,98.5C 231.94,102.449 228.107,104.783 223.5,105.5C 220.621,105.024 217.788,104.358 215,103.5C 213.439,103.603 211.939,103.937 210.5,104.5C 209.207,102.364 209.207,100.364 210.5,98.5C 210.369,99.2389 210.536,99.9056 211,100.5C 211.949,98.9069 213.115,97.5736 214.5,96.5C 216.648,96.3894 216.981,97.056 215.5,98.5C 220.904,101.66 225.737,100.993 230,96.5C 228.886,94.3309 229.386,92.4976 231.5,91C 228.608,90.7509 226.275,89.5842 224.5,87.5 Z"/></g>
<g><path style="opacity:1" fill="#5f6870" d="M 161.5,88.5 C 161.599,91.2372 161.265,93.9039 160.5,96.5C 155.729,100.769 151.062,105.269 146.5,110C 144.866,110.494 143.199,110.66 141.5,110.5C 150.61,105.39 157.276,98.057 161.5,88.5 Z"/></g>
<g><path style="opacity:1" fill="#f0eff2" d="M 373.5,108.5 C 373.392,113.705 372.392,118.705 370.5,123.5C 369.833,124.167 369.167,124.833 368.5,125.5C 366.167,126.833 363.833,126.833 361.5,125.5C 364.859,118.942 366.192,111.942 365.5,104.5C 370.095,102.298 372.761,103.631 373.5,108.5 Z"/></g>
<g><path style="opacity:1" fill="#cdc8dd" d="M 81.5,94.5 C 85.4607,95.9585 89.4607,97.2919 93.5,98.5C 107.349,103.846 121.682,104.846 136.5,101.5C 141.591,100.456 145.925,98.1229 149.5,94.5C 149.141,96.371 148.141,97.871 146.5,99C 132.312,109.289 116.646,112.122 99.5,107.5C 96.3703,105.977 93.037,105.311 89.5,105.5C 89.5,104.5 89.5,103.5 89.5,102.5C 84.934,101.935 82.2674,99.2682 81.5,94.5 Z"/></g>
<g><path style="opacity:1" fill="#21551d" d="M 162.5,73.5 C 162.833,73.5 163.167,73.5 163.5,73.5C 168.149,95.038 160.149,109.538 139.5,117C 131.695,118.495 124.028,118.661 116.5,117.5C 133.484,119.343 147.651,114.009 159,101.5C 160.009,99.9751 160.509,98.3084 160.5,96.5C 161.265,93.9039 161.599,91.2372 161.5,88.5C 162.487,83.6946 162.821,78.6946 162.5,73.5 Z"/></g>
<g><path style="opacity:0.945" fill="#353751" d="M 362.5,97.5 C 365.833,98.5 369.167,99.5 372.5,100.5C 374.562,102.37 375.895,104.703 376.5,107.5C 378.409,108.348 380.409,108.682 382.5,108.5C 383.1,112.767 382.933,117.101 382,121.5C 379.627,126.256 377.794,131.256 376.5,136.5C 374.511,140.178 371.511,142.178 367.5,142.5C 368.624,144.731 369.124,147.064 369,149.5C 366.049,151.076 362.883,151.743 359.5,151.5C 356.287,151.81 353.287,151.477 350.5,150.5C 355.214,150.827 359.88,150.493 364.5,149.5C 365.5,148.833 366.5,148.167 367.5,147.5C 367.376,146.893 367.043,146.56 366.5,146.5C 365.588,145.262 365.421,143.928 366,142.5C 372.368,139.968 375.868,135.301 376.5,128.5C 373.523,128.098 370.857,127.098 368.5,125.5C 369.167,124.833 369.833,124.167 370.5,123.5C 371.404,124.209 371.737,125.209 371.5,126.5C 373.415,126.784 375.081,126.451 376.5,125.5C 377.846,123.463 379.18,121.463 380.5,119.5C 381.152,118.551 381.486,117.385 381.5,116C 381.693,113.992 381.026,112.492 379.5,111.5C 378.791,110.596 377.791,110.263 376.5,110.5C 375.5,109.833 374.5,109.167 373.5,108.5C 372.761,103.631 370.095,102.298 365.5,104.5C 364.5,105.833 363.5,105.833 362.5,104.5C 361.57,100.907 359.237,99.2407 355.5,99.5C 357.833,98.8333 360.167,98.1667 362.5,97.5 Z"/></g>
<g><path style="opacity:0.076" fill="#010203" d="M 11.5,109.5 C 13.3989,118.411 18.3989,125.077 26.5,129.5C 29.0333,132.868 32.0333,135.701 35.5,138C 39.1099,139.944 42.4432,142.277 45.5,145C 47.0249,146.009 48.6916,146.509 50.5,146.5C 50.5,146.833 50.5,147.167 50.5,147.5C 49.8333,147.5 49.5,147.833 49.5,148.5C 47.5887,149.075 45.922,150.075 44.5,151.5C 35.0601,145.351 26.2267,138.351 18,130.5C 13.206,124.327 11.0394,117.327 11.5,109.5 Z"/></g>
<g><path style="opacity:1" fill="#b6b2cd" d="M 152.5,61.5 C 153.833,62.5 155.167,63.5 156.5,64.5C 158.009,68.8593 159.342,73.1926 160.5,77.5C 160.665,80.8499 160.498,84.1832 160,87.5C 157.108,88.8419 155.775,91.1752 156,94.5C 154.667,97.1667 153.333,97.1667 152,94.5C 149.872,97.6301 147.372,100.463 144.5,103C 140.97,103.672 139.637,105.838 140.5,109.5C 132.323,110.001 124.156,110.668 116,111.5C 109.813,112.031 104.313,110.697 99.5,107.5C 116.646,112.122 132.312,109.289 146.5,99C 148.141,97.871 149.141,96.371 149.5,94.5C 150.092,91.8728 150.425,89.2062 150.5,86.5C 151.5,86.5 152.5,86.5 153.5,86.5C 154.96,78.0963 154.626,69.7629 152.5,61.5 Z"/></g>
<g><path style="opacity:1" fill="#297023" d="M 163.5,73.5 C 164.151,74.0906 164.818,74.7573 165.5,75.5C 166.496,81.4632 166.829,87.4632 166.5,93.5C 155.309,115.755 137.309,124.088 112.5,118.5C 104.553,116.076 96.8862,113.076 89.5,109.5C 89.5,109.167 89.5,108.833 89.5,108.5C 90.1499,108.196 90.8165,107.863 91.5,107.5C 95.4282,108.682 99.0949,110.348 102.5,112.5C 107.05,114.376 111.716,116.043 116.5,117.5C 124.028,118.661 131.695,118.495 139.5,117C 160.149,109.538 168.149,95.038 163.5,73.5 Z"/></g>
<g><path style="opacity:0.808" fill="#4d4e4a" d="M 276.5,103.5 C 277.94,104.946 278.607,106.779 278.5,109C 278.392,110.681 277.725,111.848 276.5,112.5C 276.5,109.5 276.5,106.5 276.5,103.5 Z"/></g>
<g><path style="opacity:1" fill="#eeedf0" d="M 376.5,110.5 C 377.791,110.263 378.791,110.596 379.5,111.5C 380.265,114.096 380.599,116.763 380.5,119.5C 379.18,121.463 377.846,123.463 376.5,125.5C 375.022,125.762 373.689,125.429 372.5,124.5C 374.768,120.094 376.101,115.427 376.5,110.5 Z"/></g>
<g><path style="opacity:1" fill="#808493" d="M 141.5,110.5 C 140.158,111.793 138.491,112.626 136.5,113C 128.536,114.784 120.536,115.284 112.5,114.5C 110.97,114.36 109.97,113.693 109.5,112.5C 120.299,112.976 130.966,112.309 141.5,110.5 Z"/></g>
<g><path style="opacity:1" fill="#f4f4f5" d="M 327.5,113.5 C 329.153,113.66 330.486,114.326 331.5,115.5C 331.821,117.048 332.821,117.715 334.5,117.5C 334.054,120.01 334.72,122.01 336.5,123.5C 337.512,125.876 339.345,126.876 342,126.5C 344.895,126.468 347.395,125.468 349.5,123.5C 351.92,126.077 354.92,127.077 358.5,126.5C 357.701,129.872 356.367,133.039 354.5,136C 354.833,136.5 355.167,137 355.5,137.5C 357.857,134.814 359.857,131.814 361.5,128.5C 366.441,129.098 371.441,129.098 376.5,128.5C 375.868,135.301 372.368,139.968 366,142.5C 365.421,143.928 365.588,145.262 366.5,146.5C 363.776,148.477 360.61,149.477 357,149.5C 353.477,149.293 349.977,148.96 346.5,148.5C 343.882,147.055 341.382,145.389 339,143.5C 338.873,142.223 339.373,141.057 340.5,140C 335.384,134.422 330.051,129.089 324.5,124C 319.5,123.667 314.5,123.333 309.5,123C 308.956,122.283 308.289,121.783 307.5,121.5C 307.132,118.467 307.798,115.8 309.5,113.5C 315.5,112.167 321.5,112.167 327.5,113.5 Z"/></g>
<g><path style="opacity:0.663" fill="#4c5278" d="M 347.5,94.5 C 349.973,94.736 351.64,96.0693 352.5,98.5C 353.265,97.3881 354.265,96.7214 355.5,96.5C 357.806,96.9926 360.139,97.3259 362.5,97.5C 360.167,98.1667 357.833,98.8333 355.5,99.5C 354.833,100.5 354.167,101.5 353.5,102.5C 352.883,102.611 352.383,102.944 352,103.5C 351.722,102.584 351.222,101.918 350.5,101.5C 349.059,96.7539 346.059,95.4205 341.5,97.5C 338.652,101.054 336.985,105.054 336.5,109.5C 334.72,110.99 334.054,112.99 334.5,115.5C 333.5,115.5 332.5,115.5 331.5,115.5C 330.486,114.326 329.153,113.66 327.5,113.5C 321.518,109.591 315.518,109.591 309.5,113.5C 307.798,115.8 307.132,118.467 307.5,121.5C 306.833,121.833 306.167,122.167 305.5,122.5C 305.144,120.81 304.144,119.81 302.5,119.5C 302.81,115.012 304.977,111.679 309,109.5C 315.127,107.418 321.293,107.085 327.5,108.5C 328.833,109.933 330.333,111.267 332,112.5C 332.195,111.181 332.028,109.847 331.5,108.5C 333.461,105.347 335.128,102.014 336.5,98.5C 338.824,98.3385 340.491,97.1718 341.5,95C 343.473,94.5045 345.473,94.3379 347.5,94.5 Z"/></g>
<g><path style="opacity:0.992" fill="#c1bfc8" d="M 327.5,113.5 C 321.5,112.167 315.5,112.167 309.5,113.5C 315.518,109.591 321.518,109.591 327.5,113.5 Z"/></g>
<g><path style="opacity:0.01" fill="#07090f" d="M 327.5,108.5 C 328.833,108.5 330.167,108.5 331.5,108.5C 332.028,109.847 332.195,111.181 332,112.5C 330.333,111.267 328.833,109.933 327.5,108.5 Z"/></g>
<g><path style="opacity:1" fill="#224622" d="M 160.5,96.5 C 160.509,98.3084 160.009,99.9751 159,101.5C 147.651,114.009 133.484,119.343 116.5,117.5C 111.716,116.043 107.05,114.376 102.5,112.5C 104.833,112.5 107.167,112.5 109.5,112.5C 109.97,113.693 110.97,114.36 112.5,114.5C 120.536,115.284 128.536,114.784 136.5,113C 138.491,112.626 140.158,111.793 141.5,110.5C 143.199,110.66 144.866,110.494 146.5,110C 151.062,105.269 155.729,100.769 160.5,96.5 Z"/></g>
<g><path style="opacity:1" fill="#9a98a5" d="M 379.5,111.5 C 381.026,112.492 381.693,113.992 381.5,116C 381.486,117.385 381.152,118.551 380.5,119.5C 380.599,116.763 380.265,114.096 379.5,111.5 Z"/></g>
<g><path style="opacity:1" fill="#a9c1a9" d="M 188.5,95.5 C 188.016,100.759 188.683,105.759 190.5,110.5C 192.075,114.078 194.075,117.411 196.5,120.5C 196.557,121.609 196.89,122.609 197.5,123.5C 197.5,124.167 197.5,124.833 197.5,125.5C 197.167,125.5 196.833,125.5 196.5,125.5C 193.486,120.797 190.486,116.13 187.5,111.5C 187.607,107.465 187.274,103.465 186.5,99.5C 186.34,97.6455 187.007,96.3121 188.5,95.5 Z"/></g>
<g><path style="opacity:1" fill="#141212" d="M 238.5,89.5 C 254.472,95.4208 257.805,105.421 248.5,119.5C 245.868,120.472 243.535,121.805 241.5,123.5C 237.158,123.739 232.824,124.073 228.5,124.5C 218.941,122.617 211.941,117.283 207.5,108.5C 207.336,105.813 207.503,103.146 208,100.5C 208.2,98.6803 209.034,97.347 210.5,96.5C 210.5,97.1667 210.5,97.8333 210.5,98.5C 209.207,100.364 209.207,102.364 210.5,104.5C 211.939,103.937 213.439,103.603 215,103.5C 217.788,104.358 220.621,105.024 223.5,105.5C 228.107,104.783 231.94,102.449 235,98.5C 235.494,96.8659 235.66,95.1992 235.5,93.5C 236.675,93.719 237.675,93.3857 238.5,92.5C 237.335,91.4164 236.002,90.5831 234.5,90C 235.793,89.51 237.127,89.3433 238.5,89.5 Z"/></g>
<g><path style="opacity:1" fill="#727081" d="M 373.5,108.5 C 374.5,109.167 375.5,109.833 376.5,110.5C 376.101,115.427 374.768,120.094 372.5,124.5C 373.689,125.429 375.022,125.762 376.5,125.5C 375.081,126.451 373.415,126.784 371.5,126.5C 371.737,125.209 371.404,124.209 370.5,123.5C 372.392,118.705 373.392,113.705 373.5,108.5 Z"/></g>
<g><path style="opacity:1" fill="#b9b7be" d="M 336.5,109.5 C 336.343,110.873 336.51,112.207 337,113.5C 337.308,112.692 337.808,112.025 338.5,111.5C 339.325,115.122 339.825,118.789 340,122.5C 342.12,123.605 344.287,123.605 346.5,122.5C 346.389,123.117 346.056,123.617 345.5,124C 343.5,124.667 341.5,124.667 339.5,124C 338.277,121.948 337.277,119.781 336.5,117.5C 335.481,119.46 335.481,121.46 336.5,123.5C 334.72,122.01 334.054,120.01 334.5,117.5C 332.821,117.715 331.821,117.048 331.5,115.5C 332.5,115.5 333.5,115.5 334.5,115.5C 334.054,112.99 334.72,110.99 336.5,109.5 Z"/></g>
<g><path style="opacity:0.264" fill="#030404" d="M 382.5,108.5 C 383.167,108.5 383.833,108.5 384.5,108.5C 384.5,119.833 384.5,131.167 384.5,142.5C 382.567,144.937 380.4,147.271 378,149.5C 377.178,151.788 376.511,154.122 376,156.5C 372.973,158.122 369.806,159.455 366.5,160.5C 365.052,174.574 361.886,188.24 357,201.5C 351.903,208.821 345.07,210.988 336.5,208C 331.771,206.218 327.271,204.051 323,201.5C 325.483,226.869 318.983,249.536 303.5,269.5C 299.5,269.5 295.5,269.5 291.5,269.5C 292.11,268.609 292.443,267.609 292.5,266.5C 296.411,261.678 300.078,256.678 303.5,251.5C 306.7,246.605 309.034,241.272 310.5,235.5C 310.5,235.167 310.5,234.833 310.5,234.5C 311.972,231.731 313.139,228.731 314,225.5C 315.666,214.178 315.833,202.845 314.5,191.5C 314.5,190.833 314.5,190.167 314.5,189.5C 320.752,193.651 327.419,197.151 334.5,200C 341.151,202.007 346.318,200.173 350,194.5C 354.92,181.32 357.587,167.653 358,153.5C 358.717,152.956 359.217,152.289 359.5,151.5C 362.883,151.743 366.049,151.076 369,149.5C 369.124,147.064 368.624,144.731 367.5,142.5C 371.511,142.178 374.511,140.178 376.5,136.5C 377.794,131.256 379.627,126.256 382,121.5C 382.933,117.101 383.1,112.767 382.5,108.5 Z"/></g>
<g><path style="opacity:1" fill="#34902d" d="M 166.5,93.5 C 166.741,96.7935 165.908,99.7935 164,102.5C 159.798,106.367 155.965,110.533 152.5,115C 142.868,119.605 132.702,121.771 122,121.5C 118.287,121.895 115.12,120.895 112.5,118.5C 137.309,124.088 155.309,115.755 166.5,93.5 Z"/></g>
<g><path style="opacity:0.128" fill="#000001" d="M 302.5,119.5 C 304.144,119.81 305.144,120.81 305.5,122.5C 306.429,123.315 307.429,124.148 308.5,125C 313.815,125.813 319.148,126.479 324.5,127C 328.702,130.867 332.535,135.033 336,139.5C 335.793,141.751 335.627,144.085 335.5,146.5C 339.302,147.32 342.636,148.986 345.5,151.5C 345.567,152.959 345.234,154.292 344.5,155.5C 344.633,158.925 343.967,159.258 342.5,156.5C 336.499,154.855 333.666,150.855 334,144.5C 331.618,141.573 329.118,138.739 326.5,136C 319.638,135.126 312.971,133.459 306.5,131C 303.869,127.658 302.536,123.824 302.5,119.5 Z"/></g>
<g><path style="opacity:0.749" fill="#2d3658" d="M 11.5,103.5 C 13.306,107.939 15.1393,112.606 17,117.5C 20.4044,121.394 23.5711,125.394 26.5,129.5C 18.3989,125.077 13.3989,118.411 11.5,109.5C 11.5,107.5 11.5,105.5 11.5,103.5 Z"/></g>
<g><path style="opacity:1" fill="#87c380" d="M 88.5,108.5 C 88.8333,108.5 89.1667,108.5 89.5,108.5C 89.5,108.833 89.5,109.167 89.5,109.5C 87.8333,110.5 86.5,111.833 85.5,113.5C 83.4898,115.835 81.4898,118.168 79.5,120.5C 78.3112,121.429 76.9778,121.762 75.5,121.5C 78.0338,117.78 81.0338,114.447 84.5,111.5C 85.8333,110.5 87.1667,109.5 88.5,108.5 Z"/></g>
<g><path style="opacity:1" fill="#5f5c6f" d="M 350.5,101.5 C 351.222,101.918 351.722,102.584 352,103.5C 352.383,102.944 352.883,102.611 353.5,102.5C 353.824,108.616 353.157,114.616 351.5,120.5C 352.486,124.147 354.819,125.314 358.5,124C 362.135,118.08 363.468,111.58 362.5,104.5C 363.5,105.833 364.5,105.833 365.5,104.5C 366.192,111.942 364.859,118.942 361.5,125.5C 360.791,126.404 359.791,126.737 358.5,126.5C 354.92,127.077 351.92,126.077 349.5,123.5C 347.395,125.468 344.895,126.468 342,126.5C 339.345,126.876 337.512,125.876 336.5,123.5C 335.481,121.46 335.481,119.46 336.5,117.5C 337.277,119.781 338.277,121.948 339.5,124C 341.5,124.667 343.5,124.667 345.5,124C 346.056,123.617 346.389,123.117 346.5,122.5C 348.136,121.251 349.303,119.584 350,117.5C 350.499,112.177 350.666,106.844 350.5,101.5 Z"/></g>
<g><path style="opacity:0.396" fill="#a9d4a5" d="M 75.5,121.5 C 73.8318,124.194 71.8318,126.694 69.5,129C 68.4734,129.513 67.4734,130.013 66.5,130.5C 68.8333,126.833 71.8333,123.833 75.5,121.5 Z"/></g>
<g><path style="opacity:1" fill="#e6e5ea" d="M 255.5,78.5 C 255.343,79.8734 255.51,81.2068 256,82.5C 261.407,88.4648 264.24,95.4648 264.5,103.5C 265.393,112.331 262.727,119.664 256.5,125.5C 253.255,125.88 250.255,127.047 247.5,129C 239.198,130.29 230.865,130.623 222.5,130C 218.351,128.263 214.017,127.263 209.5,127C 205.415,124.39 201.081,122.223 196.5,120.5C 194.075,117.411 192.075,114.078 190.5,110.5C 192.334,112.789 194.667,114.622 197.5,116C 199.134,116.494 200.801,116.66 202.5,116.5C 203.819,120.14 206.486,122.474 210.5,123.5C 211.965,122.391 212.965,122.891 213.5,125C 215.473,125.495 217.473,125.662 219.5,125.5C 219.5,126.5 219.5,127.5 219.5,128.5C 227.84,128.666 236.173,128.5 244.5,128C 249.637,125.677 254.637,123.177 259.5,120.5C 259.643,117.903 260.477,115.569 262,113.5C 262.667,107.833 262.667,102.167 262,96.5C 258.981,93.7974 256.981,90.4641 256,86.5C 252.87,84.372 250.037,81.872 247.5,79C 238.463,76.2997 229.297,74.133 220,72.5C 215.575,74.2924 211.075,75.9591 206.5,77.5C 209.005,74.6442 212.005,72.6442 215.5,71.5C 218.577,71.273 221.41,70.273 224,68.5C 234.728,71.0412 245.228,74.3745 255.5,78.5 Z"/></g>
<g><path style="opacity:1" fill="#909092" d="M 248.5,119.5 C 246.954,121.931 244.621,123.264 241.5,123.5C 243.535,121.805 245.868,120.472 248.5,119.5 Z"/></g>
<g><path style="opacity:1" fill="#7a7886" d="M 361.5,125.5 C 363.833,126.833 366.167,126.833 368.5,125.5C 370.857,127.098 373.523,128.098 376.5,128.5C 371.441,129.098 366.441,129.098 361.5,128.5C 359.857,131.814 357.857,134.814 355.5,137.5C 355.167,137 354.833,136.5 354.5,136C 356.367,133.039 357.701,129.872 358.5,126.5C 359.791,126.737 360.791,126.404 361.5,125.5 Z"/></g>
<g><path style="opacity:1" fill="#a6a2c1" d="M 273.5,102.5 C 275.826,112.179 274.16,121.179 268.5,129.5C 256.621,138.124 243.288,142.124 228.5,141.5C 227.015,139.769 225.015,138.769 222.5,138.5C 223.772,137.566 225.272,136.899 227,136.5C 228.853,138.187 231.019,139.187 233.5,139.5C 240.536,136.31 247.869,134.31 255.5,133.5C 256.143,130.012 258.143,127.512 261.5,126C 263.859,125.792 266.026,125.626 268,125.5C 269.329,120.684 270.996,116.018 273,111.5C 273.498,108.518 273.665,105.518 273.5,102.5 Z"/></g>
<g><path style="opacity:0.38" fill="#4c5f4d" d="M 275.5,130.5 C 278.764,132.094 281.431,134.427 283.5,137.5C 281.938,137.267 280.605,136.6 279.5,135.5C 278.833,134.167 277.833,133.167 276.5,132.5C 276.167,131.833 275.833,131.167 275.5,130.5 Z"/></g>
<g><path style="opacity:1" fill="#cfcbde" d="M 196.5,120.5 C 201.081,122.223 205.415,124.39 209.5,127C 214.017,127.263 218.351,128.263 222.5,130C 230.865,130.623 239.198,130.29 247.5,129C 250.255,127.047 253.255,125.88 256.5,125.5C 256.719,126.675 256.386,127.675 255.5,128.5C 243.869,134.193 231.535,136.026 218.5,134C 212.048,131.693 205.715,129.193 199.5,126.5C 199.715,124.821 199.048,123.821 197.5,123.5C 196.89,122.609 196.557,121.609 196.5,120.5 Z"/></g>
<g><path style="opacity:0.404" fill="#a1ce9f" d="M 66.5,130.5 C 65.2485,132.001 64.2485,133.668 63.5,135.5C 62.8333,135.833 62.1667,136.167 61.5,136.5C 61.5,135.833 61.5,135.167 61.5,134.5C 62.5,134.167 63.1667,133.5 63.5,132.5C 63.9731,131.094 64.9731,130.427 66.5,130.5 Z"/></g>
<g><path style="opacity:1" fill="#b7b3cd" d="M 269.5,95.5 C 271.669,97.3403 273.002,99.6737 273.5,102.5C 273.665,105.518 273.498,108.518 273,111.5C 270.996,116.018 269.329,120.684 268,125.5C 266.026,125.626 263.859,125.792 261.5,126C 258.143,127.512 256.143,130.012 255.5,133.5C 247.869,134.31 240.536,136.31 233.5,139.5C 231.019,139.187 228.853,138.187 227,136.5C 225.272,136.899 223.772,137.566 222.5,138.5C 218.299,137.896 214.299,136.73 210.5,135C 209.833,134 209.167,133 208.5,132C 205.324,131.111 202.324,129.945 199.5,128.5C 198.833,127.5 198.167,126.5 197.5,125.5C 197.5,124.833 197.5,124.167 197.5,123.5C 199.048,123.821 199.715,124.821 199.5,126.5C 205.715,129.193 212.048,131.693 218.5,134C 231.535,136.026 243.869,134.193 255.5,128.5C 256.386,127.675 256.719,126.675 256.5,125.5C 258.783,125.392 260.783,124.559 262.5,123C 268.694,114.881 271.027,105.715 269.5,95.5 Z"/></g>
<g><path style="opacity:1" fill="#a1a1a1" d="M 241.5,123.5 C 239.152,124.952 236.486,125.618 233.5,125.5C 231.631,125.493 229.964,125.16 228.5,124.5C 232.824,124.073 237.158,123.739 241.5,123.5 Z"/></g>
<g><path style="opacity:1" fill="#138736" d="M 187.5,111.5 C 190.486,116.13 193.486,120.797 196.5,125.5C 196.747,128.587 197.747,131.42 199.5,134C 203.538,136.67 207.538,139.337 211.5,142C 212.793,142.49 214.127,142.657 215.5,142.5C 215.721,144.664 216.721,146.33 218.5,147.5C 213.711,146.74 209.544,144.74 206,141.5C 203.601,141.972 201.601,140.972 200,138.5C 199.77,144.811 199.27,149.145 198.5,151.5C 197.5,151.5 196.5,151.5 195.5,151.5C 195.5,153.167 195.5,154.833 195.5,156.5C 196.978,156.238 198.311,156.571 199.5,157.5C 198.653,160.554 197.653,163.554 196.5,166.5C 194.591,165.652 192.591,165.318 190.5,165.5C 190.5,166.5 190.5,167.5 190.5,168.5C 194.408,169.239 196.908,171.572 198,175.5C 201.067,176.195 203.4,177.862 205,180.5C 205.772,180.645 206.439,180.978 207,181.5C 208.83,176.331 210.663,176.331 212.5,181.5C 209.966,181.259 208.3,182.259 207.5,184.5C 206.609,183.89 205.609,183.557 204.5,183.5C 193.473,173.14 182.806,162.473 172.5,151.5C 171.697,150.577 171.53,149.577 172,148.5C 177.414,144.629 182.414,140.296 187,135.5C 187.163,133.324 187.996,131.491 189.5,130C 192.193,129.973 193.527,128.64 193.5,126C 192.046,123.866 190.546,121.699 189,119.5C 187.921,116.937 187.421,114.271 187.5,111.5 Z"/></g>
<g><path style="opacity:0.38" fill="#2e3149" d="M 307.5,121.5 C 308.289,121.783 308.956,122.283 309.5,123C 314.5,123.333 319.5,123.667 324.5,124C 330.051,129.089 335.384,134.422 340.5,140C 339.373,141.057 338.873,142.223 339,143.5C 341.382,145.389 343.882,147.055 346.5,148.5C 347.167,149.167 347.833,149.833 348.5,150.5C 347.391,150.557 346.391,150.89 345.5,151.5C 342.636,148.986 339.302,147.32 335.5,146.5C 335.627,144.085 335.793,141.751 336,139.5C 332.535,135.033 328.702,130.867 324.5,127C 319.148,126.479 313.815,125.813 308.5,125C 307.429,124.148 306.429,123.315 305.5,122.5C 306.167,122.167 306.833,121.833 307.5,121.5 Z"/></g>
<g><path style="opacity:1" fill="#70737d" d="M 258.5,79.5 C 261.803,82.1582 265.136,84.8249 268.5,87.5C 269.907,91.3115 272.074,94.6448 275,97.5C 275.191,99.7078 275.691,101.708 276.5,103.5C 276.5,106.5 276.5,109.5 276.5,112.5C 276.135,117.958 275.135,123.292 273.5,128.5C 272.85,128.196 272.183,127.863 271.5,127.5C 269.006,130.495 266.339,133.328 263.5,136C 257.29,137.643 251.29,139.809 245.5,142.5C 237.165,143.666 228.831,143.666 220.5,142.5C 218.928,141.313 217.261,140.313 215.5,139.5C 219.833,140.167 224.167,140.833 228.5,141.5C 243.288,142.124 256.621,138.124 268.5,129.5C 274.16,121.179 275.826,112.179 273.5,102.5C 273.002,99.6737 271.669,97.3403 269.5,95.5C 268.824,93.1409 267.991,90.8076 267,88.5C 264.147,87.1245 261.481,85.4579 259,83.5C 258.51,82.2068 258.343,80.8734 258.5,79.5 Z"/></g>
<g><path style="opacity:0.518" fill="#596e58" d="M 283.5,137.5 C 286.5,139.833 289.167,142.5 291.5,145.5C 290.391,145.443 289.391,145.11 288.5,144.5C 286.42,142.427 284.754,140.093 283.5,137.5 Z"/></g>
<g><path style="opacity:1" fill="#8b90a0" d="M 199.5,128.5 C 202.324,129.945 205.324,131.111 208.5,132C 209.167,133 209.833,134 210.5,135C 214.299,136.73 218.299,137.896 222.5,138.5C 225.015,138.769 227.015,139.769 228.5,141.5C 224.167,140.833 219.833,140.167 215.5,139.5C 209.093,137.432 203.76,133.765 199.5,128.5 Z"/></g>
<g><path style="opacity:1" fill="#2f9e38" d="M 279.5,135.5 C 280.605,136.6 281.938,137.267 283.5,137.5C 284.754,140.093 286.42,142.427 288.5,144.5C 287.178,144.67 286.011,144.337 285,143.5C 285.16,146.186 286.327,148.519 288.5,150.5C 286.052,150.271 283.552,150.271 281,150.5C 281.257,154.414 281.091,158.414 280.5,162.5C 281.5,162.5 282.5,162.5 283.5,162.5C 283.688,164.103 283.188,165.437 282,166.5C 281.5,189.498 281.333,212.498 281.5,235.5C 280.325,235.281 279.325,235.614 278.5,236.5C 275.684,239.151 273.017,241.984 270.5,245C 272.482,247.15 273.816,249.65 274.5,252.5C 270.167,250.167 266.833,246.833 264.5,242.5C 262.681,240.528 261.681,238.195 261.5,235.5C 262.5,235.5 263.5,235.5 264.5,235.5C 264.662,207.664 264.662,179.664 264.5,151.5C 266.346,151.778 267.68,151.111 268.5,149.5C 265.059,144.227 266.226,142.227 272,143.5C 271.905,138.196 274.405,135.529 279.5,135.5 Z"/></g>
<g><path style="opacity:1" fill="#23353a" d="M 59.5,142.5 C 57.9273,146.459 54.9273,148.125 50.5,147.5C 50.5,147.167 50.5,146.833 50.5,146.5C 53.8639,146.095 56.8639,144.762 59.5,142.5 Z"/></g>
<g><path style="opacity:1" fill="#204522" d="M 60.5,136.5 C 60.6653,140.182 60.4986,143.848 60,147.5C 56.6064,148.456 53.1064,148.789 49.5,148.5C 49.5,147.833 49.8333,147.5 50.5,147.5C 54.9273,148.125 57.9273,146.459 59.5,142.5C 59.2053,140.265 59.5386,138.265 60.5,136.5 Z"/></g>
<g><path style="opacity:1" fill="#158b35" d="M 218.5,147.5 C 227.108,148.988 235.775,149.488 244.5,149C 251.906,146.488 259.239,143.988 266.5,141.5C 262.205,145.481 257.205,148.148 251.5,149.5C 244.703,151.118 237.703,151.952 230.5,152C 228.804,153.266 226.971,153.1 225,151.5C 224.333,162.833 224.333,174.167 225,185.5C 226.011,184.663 227.178,184.33 228.5,184.5C 228.5,185.5 228.5,186.5 228.5,187.5C 227.448,187.351 226.448,187.517 225.5,188C 223.336,189.491 221.336,190.991 219.5,192.5C 214.233,191.926 210.233,189.259 207.5,184.5C 208.3,182.259 209.966,181.259 212.5,181.5C 210.663,176.331 208.83,176.331 207,181.5C 206.439,180.978 205.772,180.645 205,180.5C 203.4,177.862 201.067,176.195 198,175.5C 196.908,171.572 194.408,169.239 190.5,168.5C 190.5,167.5 190.5,166.5 190.5,165.5C 192.591,165.318 194.591,165.652 196.5,166.5C 197.653,163.554 198.653,160.554 199.5,157.5C 198.311,156.571 196.978,156.238 195.5,156.5C 195.5,154.833 195.5,153.167 195.5,151.5C 196.5,151.5 197.5,151.5 198.5,151.5C 199.27,149.145 199.77,144.811 200,138.5C 201.601,140.972 203.601,141.972 206,141.5C 209.544,144.74 213.711,146.74 218.5,147.5 Z"/></g>
<g><path style="opacity:1" fill="#1c4820" d="M 273.5,128.5 C 273.833,129.167 274.167,129.833 274.5,130.5C 273.298,132.392 271.965,134.226 270.5,136C 262.769,140.198 254.769,143.864 246.5,147C 240.5,147.667 234.5,147.667 228.5,147C 225.443,146.084 222.776,144.584 220.5,142.5C 228.831,143.666 237.165,143.666 245.5,142.5C 251.29,139.809 257.29,137.643 263.5,136C 266.339,133.328 269.006,130.495 271.5,127.5C 272.183,127.863 272.85,128.196 273.5,128.5 Z"/></g>
<g><path style="opacity:1" fill="#186728" d="M 196.5,125.5 C 196.833,125.5 197.167,125.5 197.5,125.5C 198.167,126.5 198.833,127.5 199.5,128.5C 203.76,133.765 209.093,137.432 215.5,139.5C 217.261,140.313 218.928,141.313 220.5,142.5C 222.776,144.584 225.443,146.084 228.5,147C 234.5,147.667 240.5,147.667 246.5,147C 254.769,143.864 262.769,140.198 270.5,136C 271.965,134.226 273.298,132.392 274.5,130.5C 274.833,130.5 275.167,130.5 275.5,130.5C 275.833,131.167 276.167,131.833 276.5,132.5C 273.212,135.449 269.879,138.449 266.5,141.5C 259.239,143.988 251.906,146.488 244.5,149C 235.775,149.488 227.108,148.988 218.5,147.5C 216.721,146.33 215.721,144.664 215.5,142.5C 214.127,142.657 212.793,142.49 211.5,142C 207.538,139.337 203.538,136.67 199.5,134C 197.747,131.42 196.747,128.587 196.5,125.5 Z"/></g>
<g><path style="opacity:0.525" fill="#5a6f59" d="M 291.5,145.5 C 293.587,146.585 294.92,148.251 295.5,150.5C 293.413,149.415 292.08,147.749 291.5,145.5 Z"/></g>
<g><path style="opacity:1" fill="#255e21" d="M 61.5,134.5 C 61.5,135.167 61.5,135.833 61.5,136.5C 64.9603,147.956 60.9603,152.289 49.5,149.5C 49.5,149.167 49.5,148.833 49.5,148.5C 53.1064,148.789 56.6064,148.456 60,147.5C 60.4986,143.848 60.6653,140.182 60.5,136.5C 60.5,136.167 60.5,135.833 60.5,135.5C 60.5,134.833 60.8333,134.5 61.5,134.5 Z"/></g>
<g><path style="opacity:1" fill="#318a2a" d="M 63.5,135.5 C 67.9044,144.003 65.5711,149.67 56.5,152.5C 53.9658,151.727 51.6325,150.727 49.5,149.5C 60.9603,152.289 64.9603,147.956 61.5,136.5C 62.1667,136.167 62.8333,135.833 63.5,135.5 Z"/></g>
<g><path style="opacity:1" fill="#269838" d="M 276.5,132.5 C 277.833,133.167 278.833,134.167 279.5,135.5C 274.405,135.529 271.905,138.196 272,143.5C 266.226,142.227 265.059,144.227 268.5,149.5C 267.68,151.111 266.346,151.778 264.5,151.5C 264.662,179.664 264.662,207.664 264.5,235.5C 263.5,235.5 262.5,235.5 261.5,235.5C 261.681,238.195 262.681,240.528 264.5,242.5C 261.732,240.913 259.065,239.08 256.5,237C 251.968,231.638 247.301,226.472 242.5,221.5C 241.461,218.652 240.128,215.985 238.5,213.5C 237.588,212.262 237.421,210.928 238,209.5C 238.333,209.833 238.667,210.167 239,210.5C 239.494,208.866 239.66,207.199 239.5,205.5C 243.412,204.956 245.745,206.623 246.5,210.5C 246.833,210.333 247.167,210.167 247.5,210C 247.904,207.731 248.071,205.231 248,202.5C 246.644,201.62 245.144,201.286 243.5,201.5C 243.658,198.639 242.992,195.972 241.5,193.5C 244.117,188.017 244.117,182.517 241.5,177C 244.117,171.483 244.117,165.983 241.5,160.5C 242.894,158.354 243.56,156.021 243.5,153.5C 246.508,152.77 249.175,151.436 251.5,149.5C 257.205,148.148 262.205,145.481 266.5,141.5C 269.879,138.449 273.212,135.449 276.5,132.5 Z"/></g>
<g><path style="opacity:1" fill="#7c7a87" d="M 366.5,146.5 C 367.043,146.56 367.376,146.893 367.5,147.5C 366.5,148.167 365.5,148.833 364.5,149.5C 359.88,150.493 355.214,150.827 350.5,150.5C 349.833,150.5 349.167,150.5 348.5,150.5C 347.833,149.833 347.167,149.167 346.5,148.5C 349.977,148.96 353.477,149.293 357,149.5C 360.61,149.477 363.776,148.477 366.5,146.5 Z"/></g>
<g><path style="opacity:1" fill="#1e9237" d="M 251.5,149.5 C 249.175,151.436 246.508,152.77 243.5,153.5C 243.56,156.021 242.894,158.354 241.5,160.5C 244.117,165.983 244.117,171.483 241.5,177C 244.117,182.517 244.117,188.017 241.5,193.5C 242.992,195.972 243.658,198.639 243.5,201.5C 245.144,201.286 246.644,201.62 248,202.5C 248.071,205.231 247.904,207.731 247.5,210C 247.167,210.167 246.833,210.333 246.5,210.5C 245.745,206.623 243.412,204.956 239.5,205.5C 239.66,207.199 239.494,208.866 239,210.5C 238.667,210.167 238.333,209.833 238,209.5C 237.421,210.928 237.588,212.262 238.5,213.5C 235.737,213.256 233.571,211.923 232,209.5C 230.555,206.91 229.388,204.243 228.5,201.5C 226.833,201.5 225.167,201.5 223.5,201.5C 222.612,198.286 221.279,195.286 219.5,192.5C 221.336,190.991 223.336,189.491 225.5,188C 226.448,187.517 227.448,187.351 228.5,187.5C 228.5,186.5 228.5,185.5 228.5,184.5C 227.178,184.33 226.011,184.663 225,185.5C 224.333,174.167 224.333,162.833 225,151.5C 226.971,153.1 228.804,153.266 230.5,152C 237.703,151.952 244.703,151.118 251.5,149.5 Z"/></g>
<g><path style="opacity:0.192" fill="#afd3ac" d="M 49.5,148.5 C 49.5,148.833 49.5,149.167 49.5,149.5C 45.9331,152.977 42.5998,156.644 39.5,160.5C 40.7375,157.262 42.4042,154.262 44.5,151.5C 45.922,150.075 47.5887,149.075 49.5,148.5 Z"/></g>
<g><path style="opacity:0.246" fill="#090b09" d="M 172.5,151.5 C 182.806,162.473 193.473,173.14 204.5,183.5C 217.167,196.167 229.833,208.833 242.5,221.5C 247.301,226.472 251.968,231.638 256.5,237C 259.065,239.08 261.732,240.913 264.5,242.5C 266.833,246.833 270.167,250.167 274.5,252.5C 274.5,252.833 274.5,253.167 274.5,253.5C 277.563,257.566 281.229,260.899 285.5,263.5C 286.65,268.068 288.984,269.068 292.5,266.5C 292.443,267.609 292.11,268.609 291.5,269.5C 287.833,269.5 284.167,269.5 280.5,269.5C 245.521,233.854 210.188,198.521 174.5,163.5C 173.3,164.531 171.966,165.365 170.5,166C 136.511,200.781 102.178,235.281 67.5,269.5C 63.1667,269.5 58.8333,269.5 54.5,269.5C 57.1667,266.5 59.8333,263.5 62.5,260.5C 68.7623,254.229 74.7623,247.562 80.5,240.5C 86.7576,236.242 92.091,230.909 96.5,224.5C 97.2389,224.631 97.9056,224.464 98.5,224C 122.501,200.332 146.168,176.332 169.5,152C 170.448,151.517 171.448,151.351 172.5,151.5 Z"/></g>
<g><path style="opacity:1" fill="#120e27" d="M 348.5,150.5 C 349.167,150.5 349.833,150.5 350.5,150.5C 353.287,151.477 356.287,151.81 359.5,151.5C 359.217,152.289 358.717,152.956 358,153.5C 357.587,167.653 354.92,181.32 350,194.5C 346.318,200.173 341.151,202.007 334.5,200C 327.419,197.151 320.752,193.651 314.5,189.5C 313.5,189.167 312.833,188.5 312.5,187.5C 312.918,186.778 313.584,186.278 314.5,186C 308.183,180.62 301.183,176.454 293.5,173.5C 293.5,172.833 293.167,172.5 292.5,172.5C 291.682,164.072 295.348,161.072 303.5,163.5C 311.933,169.225 320.6,174.725 329.5,180C 338.824,183.159 342.824,179.993 341.5,170.5C 341.216,168.585 341.549,166.919 342.5,165.5C 342.369,166.239 342.536,166.906 343,167.5C 345.484,163.632 345.984,159.632 344.5,155.5C 345.234,154.292 345.567,152.959 345.5,151.5C 346.391,150.89 347.391,150.557 348.5,150.5 Z"/></g>
<g><path style="opacity:1" fill="#325f48" d="M 303.5,162.5 C 303.833,162.5 304.167,162.5 304.5,162.5C 304.5,163.167 304.167,163.5 303.5,163.5C 295.348,161.072 291.682,164.072 292.5,172.5C 290.225,163.115 293.892,159.781 303.5,162.5 Z"/></g>
<g><path style="opacity:0.404" fill="#49588c" d="M 344.5,155.5 C 345.984,159.632 345.484,163.632 343,167.5C 342.536,166.906 342.369,166.239 342.5,165.5C 342.5,162.5 342.5,159.5 342.5,156.5C 343.967,159.258 344.633,158.925 344.5,155.5 Z"/></g>
<g><path style="opacity:1" fill="#a9cfa6" d="M 39.5,160.5 C 36.0632,168.377 32.8965,176.377 30,184.5C 27.5267,195.907 27.0267,207.24 28.5,218.5C 28.5,219.833 28.5,221.167 28.5,222.5C 28.1667,222.5 27.8333,222.5 27.5,222.5C 26.5067,213.682 26.1734,204.682 26.5,195.5C 27.9485,182.666 32.2818,171 39.5,160.5 Z"/></g>
<g><path style="opacity:0.49" fill="#374168" d="M 304.5,162.5 C 311.28,166.395 317.947,170.562 324.5,175C 328.307,177.164 332.307,178.664 336.5,179.5C 338.528,176.716 340.194,173.716 341.5,170.5C 342.824,179.993 338.824,183.159 329.5,180C 320.6,174.725 311.933,169.225 303.5,163.5C 304.167,163.5 304.5,163.167 304.5,162.5 Z"/></g>
<g><path style="opacity:1" fill="#3aa33b" d="M 288.5,144.5 C 289.391,145.11 290.391,145.443 291.5,145.5C 292.08,147.749 293.413,149.415 295.5,150.5C 298.495,154.184 301.162,158.184 303.5,162.5C 293.892,159.781 290.225,163.115 292.5,172.5C 293.567,176.459 295.567,179.959 298.5,183C 304.214,185.177 309.547,188.011 314.5,191.5C 315.833,202.845 315.666,214.178 314,225.5C 313.139,228.731 311.972,231.731 310.5,234.5C 311.493,225.344 312.493,216.177 313.5,207C 314.796,199.318 313.13,193.318 308.5,189C 303.749,187.693 299.416,185.526 295.5,182.5C 294.97,186.529 293.97,190.362 292.5,194C 295.123,199.475 295.123,204.975 292.5,210.5C 295.167,216.167 295.167,221.833 292.5,227.5C 295.123,233.025 295.123,238.525 292.5,244C 294.458,246.149 294.791,248.482 293.5,251C 294.967,252.098 295.801,253.598 296,255.5C 296.483,254.552 296.649,253.552 296.5,252.5C 297.5,252.5 298.5,252.5 299.5,252.5C 299.539,249.679 300.205,247.012 301.5,244.5C 302.417,245.127 303.417,245.461 304.5,245.5C 303.659,247.379 303.325,249.379 303.5,251.5C 300.078,256.678 296.411,261.678 292.5,266.5C 288.984,269.068 286.65,268.068 285.5,263.5C 282.935,260.591 280.269,257.591 277.5,254.5C 276.675,253.614 275.675,253.281 274.5,253.5C 274.5,253.167 274.5,252.833 274.5,252.5C 273.816,249.65 272.482,247.15 270.5,245C 273.017,241.984 275.684,239.151 278.5,236.5C 279.325,235.614 280.325,235.281 281.5,235.5C 281.333,212.498 281.5,189.498 282,166.5C 283.188,165.437 283.688,164.103 283.5,162.5C 282.5,162.5 281.5,162.5 280.5,162.5C 281.091,158.414 281.257,154.414 281,150.5C 283.552,150.271 286.052,150.271 288.5,150.5C 286.327,148.519 285.16,146.186 285,143.5C 286.011,144.337 287.178,144.67 288.5,144.5 Z"/></g>
<g><path style="opacity:1" fill="#151a26" d="M 293.5,173.5 C 301.183,176.454 308.183,180.62 314.5,186C 313.584,186.278 312.918,186.778 312.5,187.5C 305.269,184.051 298.935,179.384 293.5,173.5 Z"/></g>
<g><path style="opacity:1" fill="#2e732e" d="M 292.5,172.5 C 293.167,172.5 293.5,172.833 293.5,173.5C 298.935,179.384 305.269,184.051 312.5,187.5C 312.833,188.5 313.5,189.167 314.5,189.5C 314.5,190.167 314.5,190.833 314.5,191.5C 309.547,188.011 304.214,185.177 298.5,183C 295.567,179.959 293.567,176.459 292.5,172.5 Z"/></g>
<g><path style="opacity:0.043" fill="#060706" d="M 26.5,195.5 C 26.1734,204.682 26.5067,213.682 27.5,222.5C 28.1371,225.456 28.6371,228.456 29,231.5C 29.9493,235.124 31.4493,238.457 33.5,241.5C 33.7549,243.967 34.7549,245.967 36.5,247.5C 36.7497,249.674 37.7497,251.341 39.5,252.5C 41.2503,253.659 42.2503,255.326 42.5,257.5C 43.0798,259.749 44.4131,261.415 46.5,262.5C 47.0798,264.749 48.4131,266.415 50.5,267.5C 50.8333,268.167 51.1667,268.833 51.5,269.5C 49.5,269.5 47.5,269.5 45.5,269.5C 28.5095,247.537 22.1761,222.87 26.5,195.5 Z"/></g>
<g><path style="opacity:1" fill="#3ba737" d="M 310.5,234.5 C 310.5,234.833 310.5,235.167 310.5,235.5C 308.317,238.702 306.317,242.036 304.5,245.5C 303.417,245.461 302.417,245.127 301.5,244.5C 300.205,247.012 299.539,249.679 299.5,252.5C 298.5,252.5 297.5,252.5 296.5,252.5C 296.649,253.552 296.483,254.552 296,255.5C 295.801,253.598 294.967,252.098 293.5,251C 294.791,248.482 294.458,246.149 292.5,244C 295.123,238.525 295.123,233.025 292.5,227.5C 295.167,221.833 295.167,216.167 292.5,210.5C 295.123,204.975 295.123,199.475 292.5,194C 293.97,190.362 294.97,186.529 295.5,182.5C 299.416,185.526 303.749,187.693 308.5,189C 313.13,193.318 314.796,199.318 313.5,207C 312.493,216.177 311.493,225.344 310.5,234.5 Z"/></g>
<g><path style="opacity:1" fill="#3e9952" d="M 204.5,183.5 C 205.609,183.557 206.609,183.89 207.5,184.5C 210.233,189.259 214.233,191.926 219.5,192.5C 221.279,195.286 222.612,198.286 223.5,201.5C 225.167,201.5 226.833,201.5 228.5,201.5C 229.388,204.243 230.555,206.91 232,209.5C 233.571,211.923 235.737,213.256 238.5,213.5C 240.128,215.985 241.461,218.652 242.5,221.5C 229.833,208.833 217.167,196.167 204.5,183.5 Z"/></g>
<g><path style="opacity:1" fill="#67b662" d="M 28.5,218.5 C 30.8144,224.045 32.1477,230.045 32.5,236.5C 30.3447,232.206 29.0114,227.54 28.5,222.5C 28.5,221.167 28.5,219.833 28.5,218.5 Z"/></g>
<g><path style="opacity:0.18" fill="#6d816d" d="M 27.5,222.5 C 27.8333,222.5 28.1667,222.5 28.5,222.5C 29.0114,227.54 30.3447,232.206 32.5,236.5C 33.038,238.117 33.3713,239.784 33.5,241.5C 31.4493,238.457 29.9493,235.124 29,231.5C 28.6371,228.456 28.1371,225.456 27.5,222.5 Z"/></g>
<g><path style="opacity:1" fill="#58b052" d="M 96.5,224.5 C 92.091,230.909 86.7576,236.242 80.5,240.5C 81.8165,238.047 82.6498,235.38 83,232.5C 83.414,232.957 83.914,233.291 84.5,233.5C 86.3159,232.185 87.9825,230.685 89.5,229C 90.448,228.517 91.448,228.351 92.5,228.5C 92.5,227.167 92.5,225.833 92.5,224.5C 93.8333,224.5 95.1667,224.5 96.5,224.5 Z"/></g>
<g><path style="opacity:1" fill="#70b36c" d="M 310.5,235.5 C 309.034,241.272 306.7,246.605 303.5,251.5C 303.325,249.379 303.659,247.379 304.5,245.5C 306.317,242.036 308.317,238.702 310.5,235.5 Z"/></g>
<g><path style="opacity:0.384" fill="#60765f" d="M 33.5,241.5 C 35.2451,243.033 36.2451,245.033 36.5,247.5C 34.7549,245.967 33.7549,243.967 33.5,241.5 Z"/></g>
<g><path style="opacity:0.384" fill="#5b6f5a" d="M 36.5,247.5 C 38.2503,248.659 39.2503,250.326 39.5,252.5C 37.7497,251.341 36.7497,249.674 36.5,247.5 Z"/></g>
<g><path style="opacity:1" fill="#64ad69" d="M 274.5,253.5 C 275.675,253.281 276.675,253.614 277.5,254.5C 280.269,257.591 282.935,260.591 285.5,263.5C 281.229,260.899 277.563,257.566 274.5,253.5 Z"/></g>
<g><path style="opacity:0.263" fill="#485747" d="M 42.5,257.5 C 44.5869,258.585 45.9202,260.251 46.5,262.5C 44.4131,261.415 43.0798,259.749 42.5,257.5 Z"/></g>
<g><path style="opacity:0.455" fill="#435140" d="M 46.5,262.5 C 48.5869,263.585 49.9202,265.251 50.5,267.5C 48.4131,266.415 47.0798,264.749 46.5,262.5 Z"/></g>
<g><path style="opacity:0.561" fill="#354134" d="M 62.5,260.5 C 59.8333,263.5 57.1667,266.5 54.5,269.5C 53.5,269.5 52.5,269.5 51.5,269.5C 51.1667,268.833 50.8333,268.167 50.5,267.5C 51.4959,267.414 52.3292,267.748 53,268.5C 55.7663,265.223 58.933,262.557 62.5,260.5 Z"/></g>
</svg>
